%TF.GenerationSoftware,KiCad,Pcbnew,(6.0.2)*%
%TF.CreationDate,2023-03-19T00:19:14-07:00*%
%TF.ProjectId,serial-to-ws2812-v2,73657269-616c-42d7-946f-2d7773323831,rev?*%
%TF.SameCoordinates,Original*%
%TF.FileFunction,Copper,L2,Bot*%
%TF.FilePolarity,Positive*%
%FSLAX46Y46*%
G04 Gerber Fmt 4.6, Leading zero omitted, Abs format (unit mm)*
G04 Created by KiCad (PCBNEW (6.0.2)) date 2023-03-19 00:19:14*
%MOMM*%
%LPD*%
G01*
G04 APERTURE LIST*
%TA.AperFunction,ComponentPad*%
%ADD10C,3.000000*%
%TD*%
%TA.AperFunction,ComponentPad*%
%ADD11R,1.700000X1.700000*%
%TD*%
%TA.AperFunction,ComponentPad*%
%ADD12O,1.700000X1.700000*%
%TD*%
%TA.AperFunction,ViaPad*%
%ADD13C,0.800000*%
%TD*%
%TA.AperFunction,Conductor*%
%ADD14C,0.250000*%
%TD*%
G04 APERTURE END LIST*
D10*
%TO.P,DOut,1,Pin_1*%
%TO.N,Net-(J6-Pad1)*%
X180200000Y-41750000D03*
%TD*%
%TO.P,DIn,1,Pin_1*%
%TO.N,Net-(J5-Pad1)*%
X180200000Y-34750000D03*
%TD*%
%TO.P,DOut_3.3,1,Pin_1*%
%TO.N,Net-(J4-Pad1)*%
X180200000Y-38250000D03*
%TD*%
%TO.P,Gnd,1,Pin_1*%
%TO.N,GND*%
X180250000Y-49750000D03*
%TD*%
%TO.P,Pwr,1,Pin_1*%
%TO.N,VCC*%
X180250000Y-53250000D03*
%TD*%
D11*
%TO.P,J1,1,Pin_1*%
%TO.N,GND*%
X154850000Y-52275000D03*
D12*
%TO.P,J1,2,Pin_2*%
%TO.N,Net-(J1-Pad2)*%
X157390000Y-52275000D03*
%TO.P,J1,3,Pin_3*%
%TO.N,Net-(J1-Pad3)*%
X159930000Y-52275000D03*
%TO.P,J1,4,Pin_4*%
%TO.N,Net-(J1-Pad4)*%
X162470000Y-52275000D03*
%TO.P,J1,5,Pin_5*%
%TO.N,+3V3*%
X165010000Y-52275000D03*
%TD*%
D13*
%TO.N,GND*%
X168650000Y-43450000D03*
X169550000Y-43550000D03*
X175300000Y-38500000D03*
%TO.N,Net-(J4-Pad1)*%
X171700000Y-40174500D03*
%TO.N,GND*%
X172800000Y-38300000D03*
%TO.N,Net-(J5-Pad1)*%
X170600000Y-34300000D03*
%TO.N,GND*%
X166500000Y-35300000D03*
%TO.N,Net-(J1-Pad2)*%
X171700000Y-35225500D03*
%TO.N,GND*%
X174200000Y-41050000D03*
X174050000Y-45650000D03*
X155600000Y-47200000D03*
X156300000Y-44100000D03*
X156300000Y-41600000D03*
X156300000Y-39000000D03*
X156300000Y-36500000D03*
X169900000Y-52400000D03*
X171500000Y-46700000D03*
X170900000Y-55000000D03*
X174600000Y-46400000D03*
X174300000Y-51400000D03*
%TD*%
D14*
%TO.N,Net-(J1-Pad2)*%
X157390000Y-49510000D02*
X171674500Y-35225500D01*
X171674500Y-35225500D02*
X171700000Y-35225500D01*
X157390000Y-52275000D02*
X157390000Y-49510000D01*
%TO.N,Net-(J4-Pad1)*%
X178275500Y-40174500D02*
X180200000Y-38250000D01*
X171700000Y-40174500D02*
X178275500Y-40174500D01*
%TO.N,Net-(J5-Pad1)*%
X179750000Y-34300000D02*
X180200000Y-34750000D01*
X170600000Y-34300000D02*
X179750000Y-34300000D01*
%TD*%
%TA.AperFunction,Conductor*%
%TO.N,GND*%
G36*
X169966368Y-33428002D02*
G01*
X170012861Y-33481658D01*
X170022965Y-33551932D01*
X169993471Y-33616512D01*
X169989407Y-33620655D01*
X169988747Y-33621134D01*
X169860960Y-33763056D01*
X169765473Y-33928444D01*
X169706458Y-34110072D01*
X169686496Y-34300000D01*
X169706458Y-34489928D01*
X169765473Y-34671556D01*
X169860960Y-34836944D01*
X169988747Y-34978866D01*
X170143248Y-35091118D01*
X170149276Y-35093802D01*
X170149278Y-35093803D01*
X170311681Y-35166109D01*
X170317712Y-35168794D01*
X170504513Y-35208500D01*
X170507176Y-35208500D01*
X170571481Y-35234959D01*
X170612110Y-35293181D01*
X170614811Y-35364126D01*
X170581747Y-35422349D01*
X156997747Y-49006348D01*
X156989461Y-49013888D01*
X156982982Y-49018000D01*
X156977557Y-49023777D01*
X156936357Y-49067651D01*
X156933602Y-49070493D01*
X156913865Y-49090230D01*
X156911385Y-49093427D01*
X156903682Y-49102447D01*
X156873414Y-49134679D01*
X156869595Y-49141625D01*
X156869593Y-49141628D01*
X156863652Y-49152434D01*
X156852801Y-49168953D01*
X156840386Y-49184959D01*
X156837241Y-49192228D01*
X156837238Y-49192232D01*
X156822826Y-49225537D01*
X156817609Y-49236187D01*
X156796305Y-49274940D01*
X156794334Y-49282615D01*
X156794334Y-49282616D01*
X156791267Y-49294562D01*
X156784863Y-49313266D01*
X156776819Y-49331855D01*
X156775580Y-49339678D01*
X156775577Y-49339688D01*
X156769901Y-49375524D01*
X156767495Y-49387144D01*
X156756500Y-49429970D01*
X156756500Y-49450224D01*
X156754949Y-49469934D01*
X156751780Y-49489943D01*
X156752526Y-49497835D01*
X156755941Y-49533961D01*
X156756500Y-49545819D01*
X156756500Y-50996692D01*
X156736498Y-51064813D01*
X156688683Y-51108453D01*
X156663607Y-51121507D01*
X156659474Y-51124610D01*
X156659471Y-51124612D01*
X156576450Y-51186946D01*
X156484965Y-51255635D01*
X156481393Y-51259373D01*
X156403898Y-51340466D01*
X156342374Y-51375895D01*
X156271462Y-51372438D01*
X156213676Y-51331192D01*
X156194823Y-51297644D01*
X156153324Y-51186946D01*
X156144786Y-51171351D01*
X156068285Y-51069276D01*
X156055724Y-51056715D01*
X155953649Y-50980214D01*
X155938054Y-50971676D01*
X155817606Y-50926522D01*
X155802351Y-50922895D01*
X155751486Y-50917369D01*
X155744672Y-50917000D01*
X155122115Y-50917000D01*
X155106876Y-50921475D01*
X155105671Y-50922865D01*
X155104000Y-50930548D01*
X155104000Y-53614884D01*
X155108475Y-53630123D01*
X155109865Y-53631328D01*
X155117548Y-53632999D01*
X155744669Y-53632999D01*
X155751490Y-53632629D01*
X155802352Y-53627105D01*
X155817604Y-53623479D01*
X155938054Y-53578324D01*
X155953649Y-53569786D01*
X156055724Y-53493285D01*
X156068285Y-53480724D01*
X156144786Y-53378649D01*
X156153324Y-53363054D01*
X156194225Y-53253952D01*
X156236867Y-53197188D01*
X156303428Y-53172488D01*
X156372777Y-53187696D01*
X156407444Y-53215684D01*
X156432865Y-53245031D01*
X156432869Y-53245035D01*
X156436250Y-53248938D01*
X156608126Y-53391632D01*
X156801000Y-53504338D01*
X157009692Y-53584030D01*
X157014760Y-53585061D01*
X157014763Y-53585062D01*
X157122017Y-53606883D01*
X157228597Y-53628567D01*
X157233772Y-53628757D01*
X157233774Y-53628757D01*
X157446673Y-53636564D01*
X157446677Y-53636564D01*
X157451837Y-53636753D01*
X157456957Y-53636097D01*
X157456959Y-53636097D01*
X157668288Y-53609025D01*
X157668289Y-53609025D01*
X157673416Y-53608368D01*
X157678366Y-53606883D01*
X157882429Y-53545661D01*
X157882434Y-53545659D01*
X157887384Y-53544174D01*
X158087994Y-53445896D01*
X158269860Y-53316173D01*
X158428096Y-53158489D01*
X158558453Y-52977077D01*
X158559776Y-52978028D01*
X158606645Y-52934857D01*
X158676580Y-52922625D01*
X158742026Y-52950144D01*
X158769875Y-52981994D01*
X158829987Y-53080088D01*
X158976250Y-53248938D01*
X159148126Y-53391632D01*
X159341000Y-53504338D01*
X159549692Y-53584030D01*
X159554760Y-53585061D01*
X159554763Y-53585062D01*
X159662017Y-53606883D01*
X159768597Y-53628567D01*
X159773772Y-53628757D01*
X159773774Y-53628757D01*
X159986673Y-53636564D01*
X159986677Y-53636564D01*
X159991837Y-53636753D01*
X159996957Y-53636097D01*
X159996959Y-53636097D01*
X160208288Y-53609025D01*
X160208289Y-53609025D01*
X160213416Y-53608368D01*
X160218366Y-53606883D01*
X160422429Y-53545661D01*
X160422434Y-53545659D01*
X160427384Y-53544174D01*
X160627994Y-53445896D01*
X160809860Y-53316173D01*
X160968096Y-53158489D01*
X161098453Y-52977077D01*
X161099776Y-52978028D01*
X161146645Y-52934857D01*
X161216580Y-52922625D01*
X161282026Y-52950144D01*
X161309875Y-52981994D01*
X161369987Y-53080088D01*
X161516250Y-53248938D01*
X161688126Y-53391632D01*
X161881000Y-53504338D01*
X162089692Y-53584030D01*
X162094760Y-53585061D01*
X162094763Y-53585062D01*
X162202017Y-53606883D01*
X162308597Y-53628567D01*
X162313772Y-53628757D01*
X162313774Y-53628757D01*
X162526673Y-53636564D01*
X162526677Y-53636564D01*
X162531837Y-53636753D01*
X162536957Y-53636097D01*
X162536959Y-53636097D01*
X162748288Y-53609025D01*
X162748289Y-53609025D01*
X162753416Y-53608368D01*
X162758366Y-53606883D01*
X162962429Y-53545661D01*
X162962434Y-53545659D01*
X162967384Y-53544174D01*
X163167994Y-53445896D01*
X163349860Y-53316173D01*
X163508096Y-53158489D01*
X163638453Y-52977077D01*
X163639776Y-52978028D01*
X163686645Y-52934857D01*
X163756580Y-52922625D01*
X163822026Y-52950144D01*
X163849875Y-52981994D01*
X163909987Y-53080088D01*
X164056250Y-53248938D01*
X164228126Y-53391632D01*
X164421000Y-53504338D01*
X164629692Y-53584030D01*
X164634760Y-53585061D01*
X164634763Y-53585062D01*
X164742017Y-53606883D01*
X164848597Y-53628567D01*
X164853772Y-53628757D01*
X164853774Y-53628757D01*
X165066673Y-53636564D01*
X165066677Y-53636564D01*
X165071837Y-53636753D01*
X165076957Y-53636097D01*
X165076959Y-53636097D01*
X165288288Y-53609025D01*
X165288289Y-53609025D01*
X165293416Y-53608368D01*
X165298366Y-53606883D01*
X165502429Y-53545661D01*
X165502434Y-53545659D01*
X165507384Y-53544174D01*
X165707994Y-53445896D01*
X165889860Y-53316173D01*
X166048096Y-53158489D01*
X166178453Y-52977077D01*
X166186806Y-52960177D01*
X166275136Y-52781453D01*
X166275137Y-52781451D01*
X166277430Y-52776811D01*
X166342370Y-52563069D01*
X166371529Y-52341590D01*
X166373156Y-52275000D01*
X166354852Y-52052361D01*
X166300431Y-51835702D01*
X166211354Y-51630840D01*
X166136645Y-51515358D01*
X166092822Y-51447617D01*
X166092820Y-51447614D01*
X166090014Y-51443277D01*
X165939670Y-51278051D01*
X165935619Y-51274852D01*
X165935615Y-51274848D01*
X165768414Y-51142800D01*
X165768410Y-51142798D01*
X165764359Y-51139598D01*
X165759831Y-51137098D01*
X165643988Y-51073150D01*
X165568789Y-51031638D01*
X165563920Y-51029914D01*
X165563916Y-51029912D01*
X165363087Y-50958795D01*
X165363083Y-50958794D01*
X165358212Y-50957069D01*
X165353119Y-50956162D01*
X165353116Y-50956161D01*
X165143373Y-50918800D01*
X165143367Y-50918799D01*
X165138284Y-50917894D01*
X165064452Y-50916992D01*
X164920081Y-50915228D01*
X164920079Y-50915228D01*
X164914911Y-50915165D01*
X164694091Y-50948955D01*
X164481756Y-51018357D01*
X164451443Y-51034137D01*
X164307975Y-51108822D01*
X164283607Y-51121507D01*
X164279474Y-51124610D01*
X164279471Y-51124612D01*
X164196450Y-51186946D01*
X164104965Y-51255635D01*
X164101393Y-51259373D01*
X163985567Y-51380578D01*
X163950629Y-51417138D01*
X163843201Y-51574621D01*
X163788293Y-51619621D01*
X163717768Y-51627792D01*
X163654021Y-51596538D01*
X163633324Y-51572054D01*
X163552822Y-51447617D01*
X163552820Y-51447614D01*
X163550014Y-51443277D01*
X163399670Y-51278051D01*
X163395619Y-51274852D01*
X163395615Y-51274848D01*
X163228414Y-51142800D01*
X163228410Y-51142798D01*
X163224359Y-51139598D01*
X163219831Y-51137098D01*
X163103988Y-51073150D01*
X163028789Y-51031638D01*
X163023920Y-51029914D01*
X163023916Y-51029912D01*
X162823087Y-50958795D01*
X162823083Y-50958794D01*
X162818212Y-50957069D01*
X162813119Y-50956162D01*
X162813116Y-50956161D01*
X162603373Y-50918800D01*
X162603367Y-50918799D01*
X162598284Y-50917894D01*
X162524452Y-50916992D01*
X162380081Y-50915228D01*
X162380079Y-50915228D01*
X162374911Y-50915165D01*
X162154091Y-50948955D01*
X161941756Y-51018357D01*
X161911443Y-51034137D01*
X161767975Y-51108822D01*
X161743607Y-51121507D01*
X161739474Y-51124610D01*
X161739471Y-51124612D01*
X161656450Y-51186946D01*
X161564965Y-51255635D01*
X161561393Y-51259373D01*
X161445567Y-51380578D01*
X161410629Y-51417138D01*
X161303201Y-51574621D01*
X161248293Y-51619621D01*
X161177768Y-51627792D01*
X161114021Y-51596538D01*
X161093324Y-51572054D01*
X161012822Y-51447617D01*
X161012820Y-51447614D01*
X161010014Y-51443277D01*
X160859670Y-51278051D01*
X160855619Y-51274852D01*
X160855615Y-51274848D01*
X160688414Y-51142800D01*
X160688410Y-51142798D01*
X160684359Y-51139598D01*
X160679831Y-51137098D01*
X160563988Y-51073150D01*
X160488789Y-51031638D01*
X160483920Y-51029914D01*
X160483916Y-51029912D01*
X160283087Y-50958795D01*
X160283083Y-50958794D01*
X160278212Y-50957069D01*
X160273119Y-50956162D01*
X160273116Y-50956161D01*
X160063373Y-50918800D01*
X160063367Y-50918799D01*
X160058284Y-50917894D01*
X159984452Y-50916992D01*
X159840081Y-50915228D01*
X159840079Y-50915228D01*
X159834911Y-50915165D01*
X159614091Y-50948955D01*
X159401756Y-51018357D01*
X159371443Y-51034137D01*
X159227975Y-51108822D01*
X159203607Y-51121507D01*
X159199474Y-51124610D01*
X159199471Y-51124612D01*
X159116450Y-51186946D01*
X159024965Y-51255635D01*
X159021393Y-51259373D01*
X158905567Y-51380578D01*
X158870629Y-51417138D01*
X158763201Y-51574621D01*
X158708293Y-51619621D01*
X158637768Y-51627792D01*
X158574021Y-51596538D01*
X158553324Y-51572054D01*
X158472822Y-51447617D01*
X158472820Y-51447614D01*
X158470014Y-51443277D01*
X158319670Y-51278051D01*
X158315619Y-51274852D01*
X158315615Y-51274848D01*
X158148414Y-51142800D01*
X158148410Y-51142798D01*
X158144359Y-51139598D01*
X158139835Y-51137101D01*
X158139831Y-51137098D01*
X158088608Y-51108822D01*
X158038636Y-51058390D01*
X158023500Y-50998513D01*
X158023500Y-49824594D01*
X158043502Y-49756473D01*
X158060405Y-49735499D01*
X158062700Y-49733204D01*
X178237665Y-49733204D01*
X178252932Y-49997969D01*
X178254005Y-50006470D01*
X178305065Y-50266722D01*
X178307276Y-50274974D01*
X178393184Y-50525894D01*
X178396499Y-50533779D01*
X178515664Y-50770713D01*
X178520020Y-50778079D01*
X178649347Y-50966250D01*
X178659601Y-50974594D01*
X178673342Y-50967448D01*
X179877978Y-49762812D01*
X179885592Y-49748868D01*
X179885461Y-49747035D01*
X179881210Y-49740420D01*
X178673814Y-48533024D01*
X178661804Y-48526466D01*
X178650064Y-48535434D01*
X178541935Y-48685911D01*
X178537418Y-48693196D01*
X178413325Y-48927567D01*
X178409839Y-48935395D01*
X178318700Y-49184446D01*
X178316311Y-49192670D01*
X178259812Y-49451795D01*
X178258563Y-49460250D01*
X178237754Y-49724653D01*
X178237665Y-49733204D01*
X158062700Y-49733204D01*
X159633404Y-48162500D01*
X179026584Y-48162500D01*
X179032980Y-48173770D01*
X180237188Y-49377978D01*
X180251132Y-49385592D01*
X180252965Y-49385461D01*
X180259580Y-49381210D01*
X181466604Y-48174186D01*
X181473795Y-48161017D01*
X181466473Y-48150780D01*
X181419233Y-48112115D01*
X181412261Y-48107160D01*
X181186122Y-47968582D01*
X181178552Y-47964624D01*
X180935704Y-47858022D01*
X180927644Y-47855120D01*
X180672592Y-47782467D01*
X180664214Y-47780685D01*
X180401656Y-47743318D01*
X180393111Y-47742691D01*
X180127908Y-47741302D01*
X180119374Y-47741839D01*
X179856433Y-47776456D01*
X179848035Y-47778149D01*
X179592238Y-47848127D01*
X179584143Y-47850946D01*
X179340199Y-47954997D01*
X179332577Y-47958881D01*
X179105013Y-48095075D01*
X179097981Y-48099962D01*
X179035053Y-48150377D01*
X179026584Y-48162500D01*
X159633404Y-48162500D01*
X171624999Y-36170905D01*
X171687311Y-36136879D01*
X171714094Y-36134000D01*
X171795487Y-36134000D01*
X171801939Y-36132628D01*
X171801944Y-36132628D01*
X171888887Y-36114147D01*
X171982288Y-36094294D01*
X171988319Y-36091609D01*
X172150722Y-36019303D01*
X172150724Y-36019302D01*
X172156752Y-36016618D01*
X172182839Y-35997665D01*
X172228892Y-35964205D01*
X172311253Y-35904366D01*
X172439040Y-35762444D01*
X172534527Y-35597056D01*
X172593542Y-35415428D01*
X172613504Y-35225500D01*
X172597441Y-35072670D01*
X172610213Y-35002832D01*
X172658715Y-34950985D01*
X172722751Y-34933500D01*
X178085498Y-34933500D01*
X178153619Y-34953502D01*
X178200112Y-35007158D01*
X178209141Y-35035242D01*
X178255405Y-35271053D01*
X178256792Y-35275103D01*
X178256793Y-35275108D01*
X178306985Y-35421706D01*
X178344112Y-35530144D01*
X178346039Y-35533975D01*
X178463415Y-35767352D01*
X178467160Y-35774799D01*
X178469586Y-35778328D01*
X178469589Y-35778334D01*
X178504221Y-35828723D01*
X178622274Y-36000490D01*
X178625161Y-36003663D01*
X178625162Y-36003664D01*
X178708877Y-36095666D01*
X178806582Y-36203043D01*
X179016675Y-36378707D01*
X179034310Y-36389770D01*
X179038484Y-36392388D01*
X179085561Y-36445532D01*
X179096432Y-36515691D01*
X179067647Y-36580591D01*
X179050306Y-36597458D01*
X178840666Y-36765411D01*
X178840660Y-36765417D01*
X178837318Y-36768094D01*
X178648808Y-36966742D01*
X178489002Y-37189136D01*
X178360857Y-37431161D01*
X178266743Y-37688337D01*
X178208404Y-37955907D01*
X178186917Y-38228918D01*
X178202682Y-38502320D01*
X178203507Y-38506525D01*
X178203508Y-38506533D01*
X178233917Y-38661526D01*
X178255405Y-38771053D01*
X178344112Y-39030144D01*
X178346041Y-39033978D01*
X178346042Y-39033982D01*
X178363387Y-39068470D01*
X178376125Y-39138314D01*
X178349080Y-39203958D01*
X178339917Y-39214178D01*
X178050000Y-39504095D01*
X177987688Y-39538121D01*
X177960905Y-39541000D01*
X172408200Y-39541000D01*
X172340079Y-39520998D01*
X172320853Y-39504657D01*
X172320580Y-39504960D01*
X172315668Y-39500537D01*
X172311253Y-39495634D01*
X172156752Y-39383382D01*
X172150724Y-39380698D01*
X172150722Y-39380697D01*
X171988319Y-39308391D01*
X171988318Y-39308391D01*
X171982288Y-39305706D01*
X171888888Y-39285853D01*
X171801944Y-39267372D01*
X171801939Y-39267372D01*
X171795487Y-39266000D01*
X171604513Y-39266000D01*
X171598061Y-39267372D01*
X171598056Y-39267372D01*
X171511112Y-39285853D01*
X171417712Y-39305706D01*
X171411682Y-39308391D01*
X171411681Y-39308391D01*
X171249278Y-39380697D01*
X171249276Y-39380698D01*
X171243248Y-39383382D01*
X171088747Y-39495634D01*
X171084326Y-39500544D01*
X171084325Y-39500545D01*
X171037537Y-39552509D01*
X170960960Y-39637556D01*
X170865473Y-39802944D01*
X170806458Y-39984572D01*
X170805768Y-39991133D01*
X170805768Y-39991135D01*
X170799152Y-40054085D01*
X170786496Y-40174500D01*
X170806458Y-40364428D01*
X170865473Y-40546056D01*
X170960960Y-40711444D01*
X170965378Y-40716351D01*
X170965379Y-40716352D01*
X171065796Y-40827876D01*
X171088747Y-40853366D01*
X171243248Y-40965618D01*
X171249276Y-40968302D01*
X171249278Y-40968303D01*
X171411681Y-41040609D01*
X171417712Y-41043294D01*
X171511113Y-41063147D01*
X171598056Y-41081628D01*
X171598061Y-41081628D01*
X171604513Y-41083000D01*
X171795487Y-41083000D01*
X171801939Y-41081628D01*
X171801944Y-41081628D01*
X171888887Y-41063147D01*
X171982288Y-41043294D01*
X171988319Y-41040609D01*
X172150722Y-40968303D01*
X172150724Y-40968302D01*
X172156752Y-40965618D01*
X172311253Y-40853366D01*
X172315668Y-40848463D01*
X172320580Y-40844040D01*
X172321705Y-40845289D01*
X172375014Y-40812449D01*
X172408200Y-40808000D01*
X178196733Y-40808000D01*
X178207916Y-40808527D01*
X178215409Y-40810202D01*
X178223336Y-40809953D01*
X178231228Y-40810699D01*
X178231044Y-40812646D01*
X178289677Y-40827876D01*
X178337836Y-40880042D01*
X178350146Y-40949963D01*
X178343252Y-40979266D01*
X178305793Y-41081628D01*
X178266743Y-41188337D01*
X178208404Y-41455907D01*
X178186917Y-41728918D01*
X178202682Y-42002320D01*
X178203507Y-42006525D01*
X178203508Y-42006533D01*
X178233917Y-42161526D01*
X178255405Y-42271053D01*
X178344112Y-42530144D01*
X178467160Y-42774799D01*
X178469586Y-42778328D01*
X178469589Y-42778334D01*
X178504221Y-42828723D01*
X178622274Y-43000490D01*
X178806582Y-43203043D01*
X179016675Y-43378707D01*
X179020316Y-43380991D01*
X179245024Y-43521951D01*
X179245028Y-43521953D01*
X179248664Y-43524234D01*
X179316544Y-43554883D01*
X179494345Y-43635164D01*
X179494349Y-43635166D01*
X179498257Y-43636930D01*
X179502377Y-43638150D01*
X179502376Y-43638150D01*
X179756723Y-43713491D01*
X179756727Y-43713492D01*
X179760836Y-43714709D01*
X179765070Y-43715357D01*
X179765075Y-43715358D01*
X180027298Y-43755483D01*
X180027300Y-43755483D01*
X180031540Y-43756132D01*
X180170912Y-43758322D01*
X180301071Y-43760367D01*
X180301077Y-43760367D01*
X180305362Y-43760434D01*
X180577235Y-43727534D01*
X180842127Y-43658041D01*
X180846087Y-43656401D01*
X180846092Y-43656399D01*
X180968632Y-43605641D01*
X181095136Y-43553241D01*
X181331582Y-43415073D01*
X181547089Y-43246094D01*
X181588809Y-43203043D01*
X181700716Y-43087563D01*
X181737669Y-43049431D01*
X181740202Y-43045983D01*
X181740206Y-43045978D01*
X181764453Y-43012969D01*
X181820902Y-42969910D01*
X181891669Y-42964205D01*
X181954286Y-42997665D01*
X181988873Y-43059667D01*
X181992000Y-43087563D01*
X181992000Y-48400761D01*
X181971998Y-48468882D01*
X181918342Y-48515375D01*
X181853246Y-48526114D01*
X181841610Y-48524930D01*
X181826121Y-48533089D01*
X180622022Y-49737188D01*
X180614408Y-49751132D01*
X180614539Y-49752965D01*
X180618790Y-49759580D01*
X181825730Y-50966520D01*
X181839674Y-50974134D01*
X181857010Y-50972894D01*
X181926384Y-50987985D01*
X181976587Y-51038186D01*
X181992000Y-51098573D01*
X181992000Y-51853332D01*
X181971998Y-51921453D01*
X181918342Y-51967946D01*
X181848068Y-51978050D01*
X181783488Y-51948556D01*
X181773713Y-51939117D01*
X181628125Y-51782445D01*
X181624809Y-51779731D01*
X181624806Y-51779728D01*
X181437588Y-51626492D01*
X181416205Y-51608990D01*
X181412554Y-51606753D01*
X181412539Y-51606742D01*
X181412067Y-51606453D01*
X181411950Y-51606324D01*
X181409049Y-51604262D01*
X181409505Y-51603621D01*
X181364438Y-51553803D01*
X181352835Y-51483761D01*
X181380941Y-51418565D01*
X181400161Y-51399870D01*
X181464655Y-51349301D01*
X181473125Y-51337442D01*
X181466608Y-51325818D01*
X180262812Y-50122022D01*
X180248868Y-50114408D01*
X180247035Y-50114539D01*
X180240420Y-50118790D01*
X179032910Y-51326300D01*
X179025618Y-51339654D01*
X179032673Y-51349627D01*
X179063673Y-51375546D01*
X179070599Y-51380578D01*
X179088895Y-51392055D01*
X179135972Y-51445199D01*
X179146845Y-51515358D01*
X179118061Y-51580258D01*
X179100721Y-51597126D01*
X178887318Y-51768094D01*
X178698808Y-51966742D01*
X178539002Y-52189136D01*
X178410857Y-52431161D01*
X178409385Y-52435184D01*
X178409383Y-52435188D01*
X178374441Y-52530671D01*
X178316743Y-52688337D01*
X178258404Y-52955907D01*
X178236917Y-53228918D01*
X178252682Y-53502320D01*
X178253507Y-53506525D01*
X178253508Y-53506533D01*
X178283917Y-53661526D01*
X178305405Y-53771053D01*
X178394112Y-54030144D01*
X178517160Y-54274799D01*
X178519586Y-54278328D01*
X178519589Y-54278334D01*
X178554221Y-54328723D01*
X178672274Y-54500490D01*
X178856582Y-54703043D01*
X179066675Y-54878707D01*
X179070316Y-54880991D01*
X179295024Y-55021951D01*
X179295028Y-55021953D01*
X179298664Y-55024234D01*
X179366544Y-55054883D01*
X179544345Y-55135164D01*
X179544349Y-55135166D01*
X179548257Y-55136930D01*
X179552377Y-55138150D01*
X179552376Y-55138150D01*
X179806723Y-55213491D01*
X179806727Y-55213492D01*
X179810836Y-55214709D01*
X179815070Y-55215357D01*
X179815075Y-55215358D01*
X180077298Y-55255483D01*
X180077300Y-55255483D01*
X180081540Y-55256132D01*
X180220912Y-55258322D01*
X180351071Y-55260367D01*
X180351077Y-55260367D01*
X180355362Y-55260434D01*
X180627235Y-55227534D01*
X180892127Y-55158041D01*
X180896087Y-55156401D01*
X180896092Y-55156399D01*
X181018632Y-55105641D01*
X181145136Y-55053241D01*
X181381582Y-54915073D01*
X181597089Y-54746094D01*
X181638809Y-54703043D01*
X181775516Y-54561972D01*
X181837286Y-54526972D01*
X181908173Y-54530924D01*
X181965670Y-54572573D01*
X181991522Y-54638695D01*
X181992000Y-54649657D01*
X181992000Y-55866000D01*
X181971998Y-55934121D01*
X181918342Y-55980614D01*
X181866000Y-55992000D01*
X150634000Y-55992000D01*
X150565879Y-55971998D01*
X150519386Y-55918342D01*
X150508000Y-55866000D01*
X150508000Y-53169669D01*
X153492001Y-53169669D01*
X153492371Y-53176490D01*
X153497895Y-53227352D01*
X153501521Y-53242604D01*
X153546676Y-53363054D01*
X153555214Y-53378649D01*
X153631715Y-53480724D01*
X153644276Y-53493285D01*
X153746351Y-53569786D01*
X153761946Y-53578324D01*
X153882394Y-53623478D01*
X153897649Y-53627105D01*
X153948514Y-53632631D01*
X153955328Y-53633000D01*
X154577885Y-53633000D01*
X154593124Y-53628525D01*
X154594329Y-53627135D01*
X154596000Y-53619452D01*
X154596000Y-52547115D01*
X154591525Y-52531876D01*
X154590135Y-52530671D01*
X154582452Y-52529000D01*
X153510116Y-52529000D01*
X153494877Y-52533475D01*
X153493672Y-52534865D01*
X153492001Y-52542548D01*
X153492001Y-53169669D01*
X150508000Y-53169669D01*
X150508000Y-52002885D01*
X153492000Y-52002885D01*
X153496475Y-52018124D01*
X153497865Y-52019329D01*
X153505548Y-52021000D01*
X154577885Y-52021000D01*
X154593124Y-52016525D01*
X154594329Y-52015135D01*
X154596000Y-52007452D01*
X154596000Y-50935116D01*
X154591525Y-50919877D01*
X154590135Y-50918672D01*
X154582452Y-50917001D01*
X153955331Y-50917001D01*
X153948510Y-50917371D01*
X153897648Y-50922895D01*
X153882396Y-50926521D01*
X153761946Y-50971676D01*
X153746351Y-50980214D01*
X153644276Y-51056715D01*
X153631715Y-51069276D01*
X153555214Y-51171351D01*
X153546676Y-51186946D01*
X153501522Y-51307394D01*
X153497895Y-51322649D01*
X153492369Y-51373514D01*
X153492000Y-51380328D01*
X153492000Y-52002885D01*
X150508000Y-52002885D01*
X150508000Y-33534000D01*
X150528002Y-33465879D01*
X150581658Y-33419386D01*
X150634000Y-33408000D01*
X169898247Y-33408000D01*
X169966368Y-33428002D01*
G37*
%TD.AperFunction*%
%TD*%
M02*
