%TF.GenerationSoftware,KiCad,Pcbnew,(6.0.2)*%
%TF.CreationDate,2023-03-19T00:19:14-07:00*%
%TF.ProjectId,serial-to-ws2812-v2,73657269-616c-42d7-946f-2d7773323831,rev?*%
%TF.SameCoordinates,Original*%
%TF.FileFunction,Soldermask,Top*%
%TF.FilePolarity,Negative*%
%FSLAX46Y46*%
G04 Gerber Fmt 4.6, Leading zero omitted, Abs format (unit mm)*
G04 Created by KiCad (PCBNEW (6.0.2)) date 2023-03-19 00:19:14*
%MOMM*%
%LPD*%
G01*
G04 APERTURE LIST*
G04 Aperture macros list*
%AMRoundRect*
0 Rectangle with rounded corners*
0 $1 Rounding radius*
0 $2 $3 $4 $5 $6 $7 $8 $9 X,Y pos of 4 corners*
0 Add a 4 corners polygon primitive as box body*
4,1,4,$2,$3,$4,$5,$6,$7,$8,$9,$2,$3,0*
0 Add four circle primitives for the rounded corners*
1,1,$1+$1,$2,$3*
1,1,$1+$1,$4,$5*
1,1,$1+$1,$6,$7*
1,1,$1+$1,$8,$9*
0 Add four rect primitives between the rounded corners*
20,1,$1+$1,$2,$3,$4,$5,0*
20,1,$1+$1,$4,$5,$6,$7,0*
20,1,$1+$1,$6,$7,$8,$9,0*
20,1,$1+$1,$8,$9,$2,$3,0*%
G04 Aperture macros list end*
%ADD10RoundRect,0.150000X0.587500X0.150000X-0.587500X0.150000X-0.587500X-0.150000X0.587500X-0.150000X0*%
%ADD11RoundRect,0.062500X-0.375000X-0.062500X0.375000X-0.062500X0.375000X0.062500X-0.375000X0.062500X0*%
%ADD12RoundRect,0.062500X-0.062500X-0.375000X0.062500X-0.375000X0.062500X0.375000X-0.062500X0.375000X0*%
%ADD13R,3.300000X3.300000*%
%ADD14RoundRect,0.150000X-0.512500X-0.150000X0.512500X-0.150000X0.512500X0.150000X-0.512500X0.150000X0*%
%ADD15R,2.440000X1.120000*%
%ADD16RoundRect,0.237500X-0.250000X-0.237500X0.250000X-0.237500X0.250000X0.237500X-0.250000X0.237500X0*%
%ADD17RoundRect,0.200000X0.200000X0.275000X-0.200000X0.275000X-0.200000X-0.275000X0.200000X-0.275000X0*%
%ADD18RoundRect,0.237500X0.237500X-0.250000X0.237500X0.250000X-0.237500X0.250000X-0.237500X-0.250000X0*%
%ADD19RoundRect,0.200000X-0.200000X-0.275000X0.200000X-0.275000X0.200000X0.275000X-0.200000X0.275000X0*%
%ADD20RoundRect,0.250000X0.850000X-0.375000X0.850000X0.375000X-0.850000X0.375000X-0.850000X-0.375000X0*%
%ADD21C,3.000000*%
%ADD22R,1.700000X1.700000*%
%ADD23O,1.700000X1.700000*%
%ADD24RoundRect,0.237500X0.287500X0.237500X-0.287500X0.237500X-0.287500X-0.237500X0.287500X-0.237500X0*%
%ADD25RoundRect,0.237500X0.300000X0.237500X-0.300000X0.237500X-0.300000X-0.237500X0.300000X-0.237500X0*%
%ADD26RoundRect,0.237500X-0.300000X-0.237500X0.300000X-0.237500X0.300000X0.237500X-0.300000X0.237500X0*%
%ADD27RoundRect,0.250000X0.250000X0.475000X-0.250000X0.475000X-0.250000X-0.475000X0.250000X-0.475000X0*%
%ADD28RoundRect,0.237500X-0.237500X0.300000X-0.237500X-0.300000X0.237500X-0.300000X0.237500X0.300000X0*%
%ADD29RoundRect,0.250000X-0.475000X0.250000X-0.475000X-0.250000X0.475000X-0.250000X0.475000X0.250000X0*%
%ADD30RoundRect,0.225000X-0.225000X-0.250000X0.225000X-0.250000X0.225000X0.250000X-0.225000X0.250000X0*%
G04 APERTURE END LIST*
D10*
%TO.C,U1*%
X171437500Y-43550000D03*
X171437500Y-41650000D03*
X169562500Y-42600000D03*
%TD*%
D11*
%TO.C,U3*%
X166862500Y-35950000D03*
X166862500Y-36450000D03*
X166862500Y-36950000D03*
X166862500Y-37450000D03*
X166862500Y-37950000D03*
X166862500Y-38450000D03*
X166862500Y-38950000D03*
X166862500Y-39450000D03*
D12*
X167550000Y-40137500D03*
X168050000Y-40137500D03*
X168550000Y-40137500D03*
X169050000Y-40137500D03*
X169550000Y-40137500D03*
X170050000Y-40137500D03*
X170550000Y-40137500D03*
X171050000Y-40137500D03*
D11*
X171737500Y-39450000D03*
X171737500Y-38950000D03*
X171737500Y-38450000D03*
X171737500Y-37950000D03*
X171737500Y-37450000D03*
X171737500Y-36950000D03*
X171737500Y-36450000D03*
X171737500Y-35950000D03*
D12*
X171050000Y-35262500D03*
X170550000Y-35262500D03*
X170050000Y-35262500D03*
X169550000Y-35262500D03*
X169050000Y-35262500D03*
X168550000Y-35262500D03*
X168050000Y-35262500D03*
X167550000Y-35262500D03*
D13*
X169300000Y-37700000D03*
%TD*%
D14*
%TO.C,U2*%
X177437500Y-52050000D03*
X177437500Y-53000000D03*
X177437500Y-53950000D03*
X175162500Y-53950000D03*
X175162500Y-53000000D03*
X175162500Y-52050000D03*
%TD*%
%TO.C,U4*%
X174062500Y-42950000D03*
X174062500Y-43900000D03*
X174062500Y-44850000D03*
X176337500Y-44850000D03*
X176337500Y-42950000D03*
%TD*%
D15*
%TO.C,SW1*%
X163105000Y-44110000D03*
X163105000Y-41570000D03*
X163105000Y-39030000D03*
X163105000Y-36490000D03*
X154495000Y-36490000D03*
X154495000Y-39030000D03*
X154495000Y-41570000D03*
X154495000Y-44110000D03*
%TD*%
D16*
%TO.C,R4*%
X153787500Y-49700000D03*
X155612500Y-49700000D03*
%TD*%
D17*
%TO.C,R3*%
X176225000Y-47450000D03*
X174575000Y-47450000D03*
%TD*%
D18*
%TO.C,R2*%
X168100000Y-47687500D03*
X168100000Y-49512500D03*
%TD*%
D19*
%TO.C,R1*%
X174575000Y-48950000D03*
X176225000Y-48950000D03*
%TD*%
D20*
%TO.C,L1*%
X172400000Y-51675000D03*
X172400000Y-49525000D03*
%TD*%
D21*
%TO.C,DOut*%
X180200000Y-41750000D03*
%TD*%
%TO.C,DIn*%
X180200000Y-34750000D03*
%TD*%
%TO.C,DOut_3.3*%
X180200000Y-38250000D03*
%TD*%
%TO.C,Gnd*%
X180250000Y-49750000D03*
%TD*%
%TO.C,Pwr*%
X180250000Y-53250000D03*
%TD*%
D22*
%TO.C,J1*%
X154850000Y-52275000D03*
D23*
X157390000Y-52275000D03*
X159930000Y-52275000D03*
X162470000Y-52275000D03*
X165010000Y-52275000D03*
%TD*%
D24*
%TO.C,D2*%
X155575000Y-48200000D03*
X153825000Y-48200000D03*
%TD*%
%TO.C,D1*%
X171500000Y-47700000D03*
X169750000Y-47700000D03*
%TD*%
D25*
%TO.C,C6*%
X177000000Y-41050000D03*
X175275000Y-41050000D03*
%TD*%
D26*
%TO.C,C5*%
X173537500Y-39500000D03*
X175262500Y-39500000D03*
%TD*%
D27*
%TO.C,C4*%
X172750000Y-53700000D03*
X170850000Y-53700000D03*
%TD*%
D28*
%TO.C,C3*%
X167750000Y-41737500D03*
X167750000Y-43462500D03*
%TD*%
D29*
%TO.C,C2*%
X169900000Y-49450000D03*
X169900000Y-51350000D03*
%TD*%
D30*
%TO.C,C1*%
X175525000Y-50500000D03*
X177075000Y-50500000D03*
%TD*%
M02*
