%TF.GenerationSoftware,KiCad,Pcbnew,(6.0.2)*%
%TF.CreationDate,2023-03-19T00:19:14-07:00*%
%TF.ProjectId,serial-to-ws2812-v2,73657269-616c-42d7-946f-2d7773323831,rev?*%
%TF.SameCoordinates,Original*%
%TF.FileFunction,Legend,Top*%
%TF.FilePolarity,Positive*%
%FSLAX46Y46*%
G04 Gerber Fmt 4.6, Leading zero omitted, Abs format (unit mm)*
G04 Created by KiCad (PCBNEW (6.0.2)) date 2023-03-19 00:19:14*
%MOMM*%
%LPD*%
G01*
G04 APERTURE LIST*
G04 Aperture macros list*
%AMRoundRect*
0 Rectangle with rounded corners*
0 $1 Rounding radius*
0 $2 $3 $4 $5 $6 $7 $8 $9 X,Y pos of 4 corners*
0 Add a 4 corners polygon primitive as box body*
4,1,4,$2,$3,$4,$5,$6,$7,$8,$9,$2,$3,0*
0 Add four circle primitives for the rounded corners*
1,1,$1+$1,$2,$3*
1,1,$1+$1,$4,$5*
1,1,$1+$1,$6,$7*
1,1,$1+$1,$8,$9*
0 Add four rect primitives between the rounded corners*
20,1,$1+$1,$2,$3,$4,$5,0*
20,1,$1+$1,$4,$5,$6,$7,0*
20,1,$1+$1,$6,$7,$8,$9,0*
20,1,$1+$1,$8,$9,$2,$3,0*%
G04 Aperture macros list end*
%ADD10C,0.150000*%
%ADD11C,0.120000*%
%ADD12RoundRect,0.150000X0.587500X0.150000X-0.587500X0.150000X-0.587500X-0.150000X0.587500X-0.150000X0*%
%ADD13RoundRect,0.062500X-0.375000X-0.062500X0.375000X-0.062500X0.375000X0.062500X-0.375000X0.062500X0*%
%ADD14RoundRect,0.062500X-0.062500X-0.375000X0.062500X-0.375000X0.062500X0.375000X-0.062500X0.375000X0*%
%ADD15R,3.300000X3.300000*%
%ADD16RoundRect,0.150000X-0.512500X-0.150000X0.512500X-0.150000X0.512500X0.150000X-0.512500X0.150000X0*%
%ADD17R,2.440000X1.120000*%
%ADD18RoundRect,0.237500X-0.250000X-0.237500X0.250000X-0.237500X0.250000X0.237500X-0.250000X0.237500X0*%
%ADD19RoundRect,0.200000X0.200000X0.275000X-0.200000X0.275000X-0.200000X-0.275000X0.200000X-0.275000X0*%
%ADD20RoundRect,0.237500X0.237500X-0.250000X0.237500X0.250000X-0.237500X0.250000X-0.237500X-0.250000X0*%
%ADD21RoundRect,0.200000X-0.200000X-0.275000X0.200000X-0.275000X0.200000X0.275000X-0.200000X0.275000X0*%
%ADD22RoundRect,0.250000X0.850000X-0.375000X0.850000X0.375000X-0.850000X0.375000X-0.850000X-0.375000X0*%
%ADD23C,3.000000*%
%ADD24R,1.700000X1.700000*%
%ADD25O,1.700000X1.700000*%
%ADD26RoundRect,0.237500X0.287500X0.237500X-0.287500X0.237500X-0.287500X-0.237500X0.287500X-0.237500X0*%
%ADD27RoundRect,0.237500X0.300000X0.237500X-0.300000X0.237500X-0.300000X-0.237500X0.300000X-0.237500X0*%
%ADD28RoundRect,0.237500X-0.300000X-0.237500X0.300000X-0.237500X0.300000X0.237500X-0.300000X0.237500X0*%
%ADD29RoundRect,0.250000X0.250000X0.475000X-0.250000X0.475000X-0.250000X-0.475000X0.250000X-0.475000X0*%
%ADD30RoundRect,0.237500X-0.237500X0.300000X-0.237500X-0.300000X0.237500X-0.300000X0.237500X0.300000X0*%
%ADD31RoundRect,0.250000X-0.475000X0.250000X-0.475000X-0.250000X0.475000X-0.250000X0.475000X0.250000X0*%
%ADD32RoundRect,0.225000X-0.225000X-0.250000X0.225000X-0.250000X0.225000X0.250000X-0.225000X0.250000X0*%
G04 APERTURE END LIST*
D10*
X164452380Y-55890476D02*
X164452380Y-55271428D01*
X164833333Y-55604761D01*
X164833333Y-55461904D01*
X164880952Y-55366666D01*
X164928571Y-55319047D01*
X165023809Y-55271428D01*
X165261904Y-55271428D01*
X165357142Y-55319047D01*
X165404761Y-55366666D01*
X165452380Y-55461904D01*
X165452380Y-55747619D01*
X165404761Y-55842857D01*
X165357142Y-55890476D01*
X164785714Y-54938095D02*
X165452380Y-54700000D01*
X164785714Y-54461904D01*
X164452380Y-54176190D02*
X164452380Y-53557142D01*
X164833333Y-53890476D01*
X164833333Y-53747619D01*
X164880952Y-53652380D01*
X164928571Y-53604761D01*
X165023809Y-53557142D01*
X165261904Y-53557142D01*
X165357142Y-53604761D01*
X165404761Y-53652380D01*
X165452380Y-53747619D01*
X165452380Y-54033333D01*
X165404761Y-54128571D01*
X165357142Y-54176190D01*
X160352380Y-55700000D02*
X159352380Y-55700000D01*
X159352380Y-55319047D01*
X159400000Y-55223809D01*
X159447619Y-55176190D01*
X159542857Y-55128571D01*
X159685714Y-55128571D01*
X159780952Y-55176190D01*
X159828571Y-55223809D01*
X159876190Y-55319047D01*
X159876190Y-55700000D01*
X160352380Y-54700000D02*
X159352380Y-54700000D01*
X159352380Y-54461904D01*
X159400000Y-54319047D01*
X159495238Y-54223809D01*
X159590476Y-54176190D01*
X159780952Y-54128571D01*
X159923809Y-54128571D01*
X160114285Y-54176190D01*
X160209523Y-54223809D01*
X160304761Y-54319047D01*
X160352380Y-54461904D01*
X160352380Y-54700000D01*
X160352380Y-53700000D02*
X159352380Y-53700000D01*
X162852380Y-55347619D02*
X162376190Y-55680952D01*
X162852380Y-55919047D02*
X161852380Y-55919047D01*
X161852380Y-55538095D01*
X161900000Y-55442857D01*
X161947619Y-55395238D01*
X162042857Y-55347619D01*
X162185714Y-55347619D01*
X162280952Y-55395238D01*
X162328571Y-55442857D01*
X162376190Y-55538095D01*
X162376190Y-55919047D01*
X162804761Y-54966666D02*
X162852380Y-54823809D01*
X162852380Y-54585714D01*
X162804761Y-54490476D01*
X162757142Y-54442857D01*
X162661904Y-54395238D01*
X162566666Y-54395238D01*
X162471428Y-54442857D01*
X162423809Y-54490476D01*
X162376190Y-54585714D01*
X162328571Y-54776190D01*
X162280952Y-54871428D01*
X162233333Y-54919047D01*
X162138095Y-54966666D01*
X162042857Y-54966666D01*
X161947619Y-54919047D01*
X161900000Y-54871428D01*
X161852380Y-54776190D01*
X161852380Y-54538095D01*
X161900000Y-54395238D01*
X161852380Y-54109523D02*
X161852380Y-53538095D01*
X162852380Y-53823809D02*
X161852380Y-53823809D01*
X156752380Y-55390476D02*
X156752380Y-54819047D01*
X157752380Y-55104761D02*
X156752380Y-55104761D01*
X157752380Y-54580952D02*
X157085714Y-54057142D01*
X157085714Y-54580952D02*
X157752380Y-54057142D01*
X154300000Y-55242857D02*
X154252380Y-55338095D01*
X154252380Y-55480952D01*
X154300000Y-55623809D01*
X154395238Y-55719047D01*
X154490476Y-55766666D01*
X154680952Y-55814285D01*
X154823809Y-55814285D01*
X155014285Y-55766666D01*
X155109523Y-55719047D01*
X155204761Y-55623809D01*
X155252380Y-55480952D01*
X155252380Y-55385714D01*
X155204761Y-55242857D01*
X155157142Y-55195238D01*
X154823809Y-55195238D01*
X154823809Y-55385714D01*
X154585714Y-54766666D02*
X155252380Y-54766666D01*
X154680952Y-54766666D02*
X154633333Y-54719047D01*
X154585714Y-54623809D01*
X154585714Y-54480952D01*
X154633333Y-54385714D01*
X154728571Y-54338095D01*
X155252380Y-54338095D01*
X155252380Y-53433333D02*
X154252380Y-53433333D01*
X155204761Y-53433333D02*
X155252380Y-53528571D01*
X155252380Y-53719047D01*
X155204761Y-53814285D01*
X155157142Y-53861904D01*
X155061904Y-53909523D01*
X154776190Y-53909523D01*
X154680952Y-53861904D01*
X154633333Y-53814285D01*
X154585714Y-53719047D01*
X154585714Y-53528571D01*
X154633333Y-53433333D01*
%TO.C,U1*%
X169738095Y-44452380D02*
X169738095Y-45261904D01*
X169785714Y-45357142D01*
X169833333Y-45404761D01*
X169928571Y-45452380D01*
X170119047Y-45452380D01*
X170214285Y-45404761D01*
X170261904Y-45357142D01*
X170309523Y-45261904D01*
X170309523Y-44452380D01*
X171309523Y-45452380D02*
X170738095Y-45452380D01*
X171023809Y-45452380D02*
X171023809Y-44452380D01*
X170928571Y-44595238D01*
X170833333Y-44690476D01*
X170738095Y-44738095D01*
%TO.C,U3*%
X168538095Y-33332380D02*
X168538095Y-34141904D01*
X168585714Y-34237142D01*
X168633333Y-34284761D01*
X168728571Y-34332380D01*
X168919047Y-34332380D01*
X169014285Y-34284761D01*
X169061904Y-34237142D01*
X169109523Y-34141904D01*
X169109523Y-33332380D01*
X169490476Y-33332380D02*
X170109523Y-33332380D01*
X169776190Y-33713333D01*
X169919047Y-33713333D01*
X170014285Y-33760952D01*
X170061904Y-33808571D01*
X170109523Y-33903809D01*
X170109523Y-34141904D01*
X170061904Y-34237142D01*
X170014285Y-34284761D01*
X169919047Y-34332380D01*
X169633333Y-34332380D01*
X169538095Y-34284761D01*
X169490476Y-34237142D01*
%TO.C,U2*%
X174238095Y-54852380D02*
X174238095Y-55661904D01*
X174285714Y-55757142D01*
X174333333Y-55804761D01*
X174428571Y-55852380D01*
X174619047Y-55852380D01*
X174714285Y-55804761D01*
X174761904Y-55757142D01*
X174809523Y-55661904D01*
X174809523Y-54852380D01*
X175238095Y-54947619D02*
X175285714Y-54900000D01*
X175380952Y-54852380D01*
X175619047Y-54852380D01*
X175714285Y-54900000D01*
X175761904Y-54947619D01*
X175809523Y-55042857D01*
X175809523Y-55138095D01*
X175761904Y-55280952D01*
X175190476Y-55852380D01*
X175809523Y-55852380D01*
%TO.C,U4*%
X177438095Y-44852380D02*
X177438095Y-45661904D01*
X177485714Y-45757142D01*
X177533333Y-45804761D01*
X177628571Y-45852380D01*
X177819047Y-45852380D01*
X177914285Y-45804761D01*
X177961904Y-45757142D01*
X178009523Y-45661904D01*
X178009523Y-44852380D01*
X178914285Y-45185714D02*
X178914285Y-45852380D01*
X178676190Y-44804761D02*
X178438095Y-45519047D01*
X179057142Y-45519047D01*
%TO.C,SW1*%
X165704761Y-42333333D02*
X165752380Y-42190476D01*
X165752380Y-41952380D01*
X165704761Y-41857142D01*
X165657142Y-41809523D01*
X165561904Y-41761904D01*
X165466666Y-41761904D01*
X165371428Y-41809523D01*
X165323809Y-41857142D01*
X165276190Y-41952380D01*
X165228571Y-42142857D01*
X165180952Y-42238095D01*
X165133333Y-42285714D01*
X165038095Y-42333333D01*
X164942857Y-42333333D01*
X164847619Y-42285714D01*
X164800000Y-42238095D01*
X164752380Y-42142857D01*
X164752380Y-41904761D01*
X164800000Y-41761904D01*
X164752380Y-41428571D02*
X165752380Y-41190476D01*
X165038095Y-41000000D01*
X165752380Y-40809523D01*
X164752380Y-40571428D01*
X165752380Y-39666666D02*
X165752380Y-40238095D01*
X165752380Y-39952380D02*
X164752380Y-39952380D01*
X164895238Y-40047619D01*
X164990476Y-40142857D01*
X165038095Y-40238095D01*
%TO.C,R4*%
X157833333Y-50152380D02*
X157500000Y-49676190D01*
X157261904Y-50152380D02*
X157261904Y-49152380D01*
X157642857Y-49152380D01*
X157738095Y-49200000D01*
X157785714Y-49247619D01*
X157833333Y-49342857D01*
X157833333Y-49485714D01*
X157785714Y-49580952D01*
X157738095Y-49628571D01*
X157642857Y-49676190D01*
X157261904Y-49676190D01*
X158690476Y-49485714D02*
X158690476Y-50152380D01*
X158452380Y-49104761D02*
X158214285Y-49819047D01*
X158833333Y-49819047D01*
%TO.C,R3*%
X177633333Y-47152380D02*
X177300000Y-46676190D01*
X177061904Y-47152380D02*
X177061904Y-46152380D01*
X177442857Y-46152380D01*
X177538095Y-46200000D01*
X177585714Y-46247619D01*
X177633333Y-46342857D01*
X177633333Y-46485714D01*
X177585714Y-46580952D01*
X177538095Y-46628571D01*
X177442857Y-46676190D01*
X177061904Y-46676190D01*
X177966666Y-46152380D02*
X178585714Y-46152380D01*
X178252380Y-46533333D01*
X178395238Y-46533333D01*
X178490476Y-46580952D01*
X178538095Y-46628571D01*
X178585714Y-46723809D01*
X178585714Y-46961904D01*
X178538095Y-47057142D01*
X178490476Y-47104761D01*
X178395238Y-47152380D01*
X178109523Y-47152380D01*
X178014285Y-47104761D01*
X177966666Y-47057142D01*
%TO.C,R2*%
X167833333Y-46852380D02*
X167500000Y-46376190D01*
X167261904Y-46852380D02*
X167261904Y-45852380D01*
X167642857Y-45852380D01*
X167738095Y-45900000D01*
X167785714Y-45947619D01*
X167833333Y-46042857D01*
X167833333Y-46185714D01*
X167785714Y-46280952D01*
X167738095Y-46328571D01*
X167642857Y-46376190D01*
X167261904Y-46376190D01*
X168214285Y-45947619D02*
X168261904Y-45900000D01*
X168357142Y-45852380D01*
X168595238Y-45852380D01*
X168690476Y-45900000D01*
X168738095Y-45947619D01*
X168785714Y-46042857D01*
X168785714Y-46138095D01*
X168738095Y-46280952D01*
X168166666Y-46852380D01*
X168785714Y-46852380D01*
%TO.C,R1*%
X177633333Y-48452380D02*
X177300000Y-47976190D01*
X177061904Y-48452380D02*
X177061904Y-47452380D01*
X177442857Y-47452380D01*
X177538095Y-47500000D01*
X177585714Y-47547619D01*
X177633333Y-47642857D01*
X177633333Y-47785714D01*
X177585714Y-47880952D01*
X177538095Y-47928571D01*
X177442857Y-47976190D01*
X177061904Y-47976190D01*
X178585714Y-48452380D02*
X178014285Y-48452380D01*
X178300000Y-48452380D02*
X178300000Y-47452380D01*
X178204761Y-47595238D01*
X178109523Y-47690476D01*
X178014285Y-47738095D01*
%TO.C,L1*%
X172933333Y-47752380D02*
X172457142Y-47752380D01*
X172457142Y-46752380D01*
X173790476Y-47752380D02*
X173219047Y-47752380D01*
X173504761Y-47752380D02*
X173504761Y-46752380D01*
X173409523Y-46895238D01*
X173314285Y-46990476D01*
X173219047Y-47038095D01*
%TO.C,DOut*%
X178376190Y-44552380D02*
X178376190Y-43552380D01*
X178614285Y-43552380D01*
X178757142Y-43600000D01*
X178852380Y-43695238D01*
X178900000Y-43790476D01*
X178947619Y-43980952D01*
X178947619Y-44123809D01*
X178900000Y-44314285D01*
X178852380Y-44409523D01*
X178757142Y-44504761D01*
X178614285Y-44552380D01*
X178376190Y-44552380D01*
X179566666Y-43552380D02*
X179757142Y-43552380D01*
X179852380Y-43600000D01*
X179947619Y-43695238D01*
X179995238Y-43885714D01*
X179995238Y-44219047D01*
X179947619Y-44409523D01*
X179852380Y-44504761D01*
X179757142Y-44552380D01*
X179566666Y-44552380D01*
X179471428Y-44504761D01*
X179376190Y-44409523D01*
X179328571Y-44219047D01*
X179328571Y-43885714D01*
X179376190Y-43695238D01*
X179471428Y-43600000D01*
X179566666Y-43552380D01*
X180852380Y-43885714D02*
X180852380Y-44552380D01*
X180423809Y-43885714D02*
X180423809Y-44409523D01*
X180471428Y-44504761D01*
X180566666Y-44552380D01*
X180709523Y-44552380D01*
X180804761Y-44504761D01*
X180852380Y-44457142D01*
X181185714Y-43885714D02*
X181566666Y-43885714D01*
X181328571Y-43552380D02*
X181328571Y-44409523D01*
X181376190Y-44504761D01*
X181471428Y-44552380D01*
X181566666Y-44552380D01*
%TO.C,DIn*%
X176247619Y-35102380D02*
X176247619Y-34102380D01*
X176485714Y-34102380D01*
X176628571Y-34150000D01*
X176723809Y-34245238D01*
X176771428Y-34340476D01*
X176819047Y-34530952D01*
X176819047Y-34673809D01*
X176771428Y-34864285D01*
X176723809Y-34959523D01*
X176628571Y-35054761D01*
X176485714Y-35102380D01*
X176247619Y-35102380D01*
X177247619Y-35102380D02*
X177247619Y-34102380D01*
X177723809Y-34435714D02*
X177723809Y-35102380D01*
X177723809Y-34530952D02*
X177771428Y-34483333D01*
X177866666Y-34435714D01*
X178009523Y-34435714D01*
X178104761Y-34483333D01*
X178152380Y-34578571D01*
X178152380Y-35102380D01*
%TO.C,DOut_3.3*%
X172504761Y-37252380D02*
X172504761Y-36252380D01*
X172742857Y-36252380D01*
X172885714Y-36300000D01*
X172980952Y-36395238D01*
X173028571Y-36490476D01*
X173076190Y-36680952D01*
X173076190Y-36823809D01*
X173028571Y-37014285D01*
X172980952Y-37109523D01*
X172885714Y-37204761D01*
X172742857Y-37252380D01*
X172504761Y-37252380D01*
X173695238Y-36252380D02*
X173885714Y-36252380D01*
X173980952Y-36300000D01*
X174076190Y-36395238D01*
X174123809Y-36585714D01*
X174123809Y-36919047D01*
X174076190Y-37109523D01*
X173980952Y-37204761D01*
X173885714Y-37252380D01*
X173695238Y-37252380D01*
X173600000Y-37204761D01*
X173504761Y-37109523D01*
X173457142Y-36919047D01*
X173457142Y-36585714D01*
X173504761Y-36395238D01*
X173600000Y-36300000D01*
X173695238Y-36252380D01*
X174980952Y-36585714D02*
X174980952Y-37252380D01*
X174552380Y-36585714D02*
X174552380Y-37109523D01*
X174600000Y-37204761D01*
X174695238Y-37252380D01*
X174838095Y-37252380D01*
X174933333Y-37204761D01*
X174980952Y-37157142D01*
X175314285Y-36585714D02*
X175695238Y-36585714D01*
X175457142Y-36252380D02*
X175457142Y-37109523D01*
X175504761Y-37204761D01*
X175600000Y-37252380D01*
X175695238Y-37252380D01*
X175790476Y-37347619D02*
X176552380Y-37347619D01*
X176695238Y-36252380D02*
X177314285Y-36252380D01*
X176980952Y-36633333D01*
X177123809Y-36633333D01*
X177219047Y-36680952D01*
X177266666Y-36728571D01*
X177314285Y-36823809D01*
X177314285Y-37061904D01*
X177266666Y-37157142D01*
X177219047Y-37204761D01*
X177123809Y-37252380D01*
X176838095Y-37252380D01*
X176742857Y-37204761D01*
X176695238Y-37157142D01*
X177742857Y-37157142D02*
X177790476Y-37204761D01*
X177742857Y-37252380D01*
X177695238Y-37204761D01*
X177742857Y-37157142D01*
X177742857Y-37252380D01*
X178123809Y-36252380D02*
X178742857Y-36252380D01*
X178409523Y-36633333D01*
X178552380Y-36633333D01*
X178647619Y-36680952D01*
X178695238Y-36728571D01*
X178742857Y-36823809D01*
X178742857Y-37061904D01*
X178695238Y-37157142D01*
X178647619Y-37204761D01*
X178552380Y-37252380D01*
X178266666Y-37252380D01*
X178171428Y-37204761D01*
X178123809Y-37157142D01*
%TO.C,Gnd*%
X179707142Y-46950000D02*
X179611904Y-46902380D01*
X179469047Y-46902380D01*
X179326190Y-46950000D01*
X179230952Y-47045238D01*
X179183333Y-47140476D01*
X179135714Y-47330952D01*
X179135714Y-47473809D01*
X179183333Y-47664285D01*
X179230952Y-47759523D01*
X179326190Y-47854761D01*
X179469047Y-47902380D01*
X179564285Y-47902380D01*
X179707142Y-47854761D01*
X179754761Y-47807142D01*
X179754761Y-47473809D01*
X179564285Y-47473809D01*
X180183333Y-47235714D02*
X180183333Y-47902380D01*
X180183333Y-47330952D02*
X180230952Y-47283333D01*
X180326190Y-47235714D01*
X180469047Y-47235714D01*
X180564285Y-47283333D01*
X180611904Y-47378571D01*
X180611904Y-47902380D01*
X181516666Y-47902380D02*
X181516666Y-46902380D01*
X181516666Y-47854761D02*
X181421428Y-47902380D01*
X181230952Y-47902380D01*
X181135714Y-47854761D01*
X181088095Y-47807142D01*
X181040476Y-47711904D01*
X181040476Y-47426190D01*
X181088095Y-47330952D01*
X181135714Y-47283333D01*
X181230952Y-47235714D01*
X181421428Y-47235714D01*
X181516666Y-47283333D01*
%TO.C,Pwr*%
X178954761Y-55902380D02*
X178954761Y-54902380D01*
X179335714Y-54902380D01*
X179430952Y-54950000D01*
X179478571Y-54997619D01*
X179526190Y-55092857D01*
X179526190Y-55235714D01*
X179478571Y-55330952D01*
X179430952Y-55378571D01*
X179335714Y-55426190D01*
X178954761Y-55426190D01*
X179859523Y-55235714D02*
X180050000Y-55902380D01*
X180240476Y-55426190D01*
X180430952Y-55902380D01*
X180621428Y-55235714D01*
X181002380Y-55902380D02*
X181002380Y-55235714D01*
X181002380Y-55426190D02*
X181050000Y-55330952D01*
X181097619Y-55283333D01*
X181192857Y-55235714D01*
X181288095Y-55235714D01*
%TO.C,J1*%
X163652380Y-50233333D02*
X164366666Y-50233333D01*
X164509523Y-50280952D01*
X164604761Y-50376190D01*
X164652380Y-50519047D01*
X164652380Y-50614285D01*
X164652380Y-49233333D02*
X164652380Y-49804761D01*
X164652380Y-49519047D02*
X163652380Y-49519047D01*
X163795238Y-49614285D01*
X163890476Y-49709523D01*
X163938095Y-49804761D01*
%TO.C,D2*%
X156561904Y-48952380D02*
X156561904Y-47952380D01*
X156800000Y-47952380D01*
X156942857Y-48000000D01*
X157038095Y-48095238D01*
X157085714Y-48190476D01*
X157133333Y-48380952D01*
X157133333Y-48523809D01*
X157085714Y-48714285D01*
X157038095Y-48809523D01*
X156942857Y-48904761D01*
X156800000Y-48952380D01*
X156561904Y-48952380D01*
X157514285Y-48047619D02*
X157561904Y-48000000D01*
X157657142Y-47952380D01*
X157895238Y-47952380D01*
X157990476Y-48000000D01*
X158038095Y-48047619D01*
X158085714Y-48142857D01*
X158085714Y-48238095D01*
X158038095Y-48380952D01*
X157466666Y-48952380D01*
X158085714Y-48952380D01*
%TO.C,D1*%
X169161904Y-46852380D02*
X169161904Y-45852380D01*
X169400000Y-45852380D01*
X169542857Y-45900000D01*
X169638095Y-45995238D01*
X169685714Y-46090476D01*
X169733333Y-46280952D01*
X169733333Y-46423809D01*
X169685714Y-46614285D01*
X169638095Y-46709523D01*
X169542857Y-46804761D01*
X169400000Y-46852380D01*
X169161904Y-46852380D01*
X170685714Y-46852380D02*
X170114285Y-46852380D01*
X170400000Y-46852380D02*
X170400000Y-45852380D01*
X170304761Y-45995238D01*
X170209523Y-46090476D01*
X170114285Y-46138095D01*
%TO.C,C6*%
X176933333Y-39707142D02*
X176885714Y-39754761D01*
X176742857Y-39802380D01*
X176647619Y-39802380D01*
X176504761Y-39754761D01*
X176409523Y-39659523D01*
X176361904Y-39564285D01*
X176314285Y-39373809D01*
X176314285Y-39230952D01*
X176361904Y-39040476D01*
X176409523Y-38945238D01*
X176504761Y-38850000D01*
X176647619Y-38802380D01*
X176742857Y-38802380D01*
X176885714Y-38850000D01*
X176933333Y-38897619D01*
X177790476Y-38802380D02*
X177600000Y-38802380D01*
X177504761Y-38850000D01*
X177457142Y-38897619D01*
X177361904Y-39040476D01*
X177314285Y-39230952D01*
X177314285Y-39611904D01*
X177361904Y-39707142D01*
X177409523Y-39754761D01*
X177504761Y-39802380D01*
X177695238Y-39802380D01*
X177790476Y-39754761D01*
X177838095Y-39707142D01*
X177885714Y-39611904D01*
X177885714Y-39373809D01*
X177838095Y-39278571D01*
X177790476Y-39230952D01*
X177695238Y-39183333D01*
X177504761Y-39183333D01*
X177409523Y-39230952D01*
X177361904Y-39278571D01*
X177314285Y-39373809D01*
%TO.C,C5*%
X173507142Y-41316666D02*
X173554761Y-41364285D01*
X173602380Y-41507142D01*
X173602380Y-41602380D01*
X173554761Y-41745238D01*
X173459523Y-41840476D01*
X173364285Y-41888095D01*
X173173809Y-41935714D01*
X173030952Y-41935714D01*
X172840476Y-41888095D01*
X172745238Y-41840476D01*
X172650000Y-41745238D01*
X172602380Y-41602380D01*
X172602380Y-41507142D01*
X172650000Y-41364285D01*
X172697619Y-41316666D01*
X172602380Y-40411904D02*
X172602380Y-40888095D01*
X173078571Y-40935714D01*
X173030952Y-40888095D01*
X172983333Y-40792857D01*
X172983333Y-40554761D01*
X173030952Y-40459523D01*
X173078571Y-40411904D01*
X173173809Y-40364285D01*
X173411904Y-40364285D01*
X173507142Y-40411904D01*
X173554761Y-40459523D01*
X173602380Y-40554761D01*
X173602380Y-40792857D01*
X173554761Y-40888095D01*
X173507142Y-40935714D01*
%TO.C,C4*%
X172133333Y-55757142D02*
X172085714Y-55804761D01*
X171942857Y-55852380D01*
X171847619Y-55852380D01*
X171704761Y-55804761D01*
X171609523Y-55709523D01*
X171561904Y-55614285D01*
X171514285Y-55423809D01*
X171514285Y-55280952D01*
X171561904Y-55090476D01*
X171609523Y-54995238D01*
X171704761Y-54900000D01*
X171847619Y-54852380D01*
X171942857Y-54852380D01*
X172085714Y-54900000D01*
X172133333Y-54947619D01*
X172990476Y-55185714D02*
X172990476Y-55852380D01*
X172752380Y-54804761D02*
X172514285Y-55519047D01*
X173133333Y-55519047D01*
%TO.C,C3*%
X167533333Y-45307142D02*
X167485714Y-45354761D01*
X167342857Y-45402380D01*
X167247619Y-45402380D01*
X167104761Y-45354761D01*
X167009523Y-45259523D01*
X166961904Y-45164285D01*
X166914285Y-44973809D01*
X166914285Y-44830952D01*
X166961904Y-44640476D01*
X167009523Y-44545238D01*
X167104761Y-44450000D01*
X167247619Y-44402380D01*
X167342857Y-44402380D01*
X167485714Y-44450000D01*
X167533333Y-44497619D01*
X167866666Y-44402380D02*
X168485714Y-44402380D01*
X168152380Y-44783333D01*
X168295238Y-44783333D01*
X168390476Y-44830952D01*
X168438095Y-44878571D01*
X168485714Y-44973809D01*
X168485714Y-45211904D01*
X168438095Y-45307142D01*
X168390476Y-45354761D01*
X168295238Y-45402380D01*
X168009523Y-45402380D01*
X167914285Y-45354761D01*
X167866666Y-45307142D01*
%TO.C,C2*%
X169857142Y-53866666D02*
X169904761Y-53914285D01*
X169952380Y-54057142D01*
X169952380Y-54152380D01*
X169904761Y-54295238D01*
X169809523Y-54390476D01*
X169714285Y-54438095D01*
X169523809Y-54485714D01*
X169380952Y-54485714D01*
X169190476Y-54438095D01*
X169095238Y-54390476D01*
X169000000Y-54295238D01*
X168952380Y-54152380D01*
X168952380Y-54057142D01*
X169000000Y-53914285D01*
X169047619Y-53866666D01*
X169047619Y-53485714D02*
X169000000Y-53438095D01*
X168952380Y-53342857D01*
X168952380Y-53104761D01*
X169000000Y-53009523D01*
X169047619Y-52961904D01*
X169142857Y-52914285D01*
X169238095Y-52914285D01*
X169380952Y-52961904D01*
X169952380Y-53533333D01*
X169952380Y-52914285D01*
%TO.C,C1*%
X177633333Y-49557142D02*
X177585714Y-49604761D01*
X177442857Y-49652380D01*
X177347619Y-49652380D01*
X177204761Y-49604761D01*
X177109523Y-49509523D01*
X177061904Y-49414285D01*
X177014285Y-49223809D01*
X177014285Y-49080952D01*
X177061904Y-48890476D01*
X177109523Y-48795238D01*
X177204761Y-48700000D01*
X177347619Y-48652380D01*
X177442857Y-48652380D01*
X177585714Y-48700000D01*
X177633333Y-48747619D01*
X178585714Y-49652380D02*
X178014285Y-49652380D01*
X178300000Y-49652380D02*
X178300000Y-48652380D01*
X178204761Y-48795238D01*
X178109523Y-48890476D01*
X178014285Y-48938095D01*
D11*
%TO.C,U1*%
X170500000Y-44160000D02*
X169850000Y-44160000D01*
X170500000Y-41040000D02*
X169850000Y-41040000D01*
X170500000Y-44160000D02*
X172175000Y-44160000D01*
X170500000Y-41040000D02*
X171150000Y-41040000D01*
%TO.C,U3*%
X171435000Y-35090000D02*
X171910000Y-35090000D01*
X167165000Y-35090000D02*
X166690000Y-35090000D01*
X171910000Y-40310000D02*
X171910000Y-39835000D01*
X167165000Y-40310000D02*
X166690000Y-40310000D01*
X166690000Y-40310000D02*
X166690000Y-39835000D01*
X171910000Y-35090000D02*
X171910000Y-35565000D01*
X171435000Y-40310000D02*
X171910000Y-40310000D01*
%TO.C,U2*%
X176300000Y-51440000D02*
X174500000Y-51440000D01*
X176300000Y-54560000D02*
X175500000Y-54560000D01*
X176300000Y-54560000D02*
X177100000Y-54560000D01*
X176300000Y-51440000D02*
X177100000Y-51440000D01*
%TO.C,U4*%
X175200000Y-45460000D02*
X174400000Y-45460000D01*
X175200000Y-42340000D02*
X173400000Y-42340000D01*
X175200000Y-42340000D02*
X176000000Y-42340000D01*
X175200000Y-45460000D02*
X176000000Y-45460000D01*
%TO.C,SW1*%
X160610000Y-43785000D02*
X159403333Y-43785000D01*
X159403333Y-39665000D02*
X159403333Y-38395000D01*
X160610000Y-42205000D02*
X160610000Y-40935000D01*
X160610000Y-41485000D02*
X159403333Y-41485000D01*
X160610000Y-43905000D02*
X159403333Y-43905000D01*
X160610000Y-39425000D02*
X159403333Y-39425000D01*
X155390000Y-35690000D02*
X155390000Y-34380000D01*
X160610000Y-41845000D02*
X159403333Y-41845000D01*
X162210000Y-40770000D02*
X162210000Y-39830000D01*
X160610000Y-39545000D02*
X159403333Y-39545000D01*
X160610000Y-39065000D02*
X159403333Y-39065000D01*
X160610000Y-38825000D02*
X159403333Y-38825000D01*
X156990000Y-42205000D02*
X160610000Y-42205000D01*
X156990000Y-43475000D02*
X156990000Y-44745000D01*
X160610000Y-39665000D02*
X160610000Y-38395000D01*
X160610000Y-36645000D02*
X159403333Y-36645000D01*
X162450000Y-46460000D02*
X162450000Y-45077000D01*
X160610000Y-39305000D02*
X159403333Y-39305000D01*
X160610000Y-35925000D02*
X159403333Y-35925000D01*
X160610000Y-41125000D02*
X159403333Y-41125000D01*
X160610000Y-38465000D02*
X159403333Y-38465000D01*
X162210000Y-35690000D02*
X162210000Y-34380000D01*
X159403333Y-44745000D02*
X159403333Y-43475000D01*
X155390000Y-38230000D02*
X155390000Y-37290000D01*
X155390000Y-40770000D02*
X155390000Y-39830000D01*
X160610000Y-44745000D02*
X160610000Y-43475000D01*
X160610000Y-38395000D02*
X156990000Y-38395000D01*
X160610000Y-36285000D02*
X159403333Y-36285000D01*
X156990000Y-38395000D02*
X156990000Y-39665000D01*
X160610000Y-36405000D02*
X159403333Y-36405000D01*
X160610000Y-44145000D02*
X159403333Y-44145000D01*
X160610000Y-35855000D02*
X156990000Y-35855000D01*
X155390000Y-46220000D02*
X155390000Y-44910000D01*
X160610000Y-39185000D02*
X159403333Y-39185000D01*
X160610000Y-40935000D02*
X156990000Y-40935000D01*
X162210000Y-46220000D02*
X155390000Y-46220000D01*
X160610000Y-36165000D02*
X159403333Y-36165000D01*
X156990000Y-37125000D02*
X160610000Y-37125000D01*
X160610000Y-36525000D02*
X159403333Y-36525000D01*
X160610000Y-42085000D02*
X159403333Y-42085000D01*
X156990000Y-40935000D02*
X156990000Y-42205000D01*
X160610000Y-44625000D02*
X159403333Y-44625000D01*
X160610000Y-43665000D02*
X159403333Y-43665000D01*
X160610000Y-44025000D02*
X159403333Y-44025000D01*
X156990000Y-35855000D02*
X156990000Y-37125000D01*
X160610000Y-43545000D02*
X159403333Y-43545000D01*
X160610000Y-36885000D02*
X159403333Y-36885000D01*
X162210000Y-46220000D02*
X162210000Y-44910000D01*
X156990000Y-44745000D02*
X160610000Y-44745000D01*
X160610000Y-41605000D02*
X159403333Y-41605000D01*
X160610000Y-38705000D02*
X159403333Y-38705000D01*
X160610000Y-36765000D02*
X159403333Y-36765000D01*
X160610000Y-38945000D02*
X159403333Y-38945000D01*
X160610000Y-36045000D02*
X159403333Y-36045000D01*
X160610000Y-38585000D02*
X159403333Y-38585000D01*
X159403333Y-37125000D02*
X159403333Y-35855000D01*
X160610000Y-41965000D02*
X159403333Y-41965000D01*
X160610000Y-41365000D02*
X159403333Y-41365000D01*
X160610000Y-37005000D02*
X159403333Y-37005000D01*
X160610000Y-41005000D02*
X159403333Y-41005000D01*
X160610000Y-41245000D02*
X159403333Y-41245000D01*
X160610000Y-44265000D02*
X159403333Y-44265000D01*
X160610000Y-44505000D02*
X159403333Y-44505000D01*
X162210000Y-43310000D02*
X162210000Y-42370000D01*
X160610000Y-44385000D02*
X159403333Y-44385000D01*
X159403333Y-42205000D02*
X159403333Y-40935000D01*
X162210000Y-38230000D02*
X162210000Y-37290000D01*
X160610000Y-43475000D02*
X156990000Y-43475000D01*
X162450000Y-46460000D02*
X161067000Y-46460000D01*
X160610000Y-41725000D02*
X159403333Y-41725000D01*
X162210000Y-34380000D02*
X155390000Y-34380000D01*
X155390000Y-43310000D02*
X155390000Y-42370000D01*
X160610000Y-37125000D02*
X160610000Y-35855000D01*
X156990000Y-39665000D02*
X160610000Y-39665000D01*
%TO.C,R4*%
X154445276Y-49177500D02*
X154954724Y-49177500D01*
X154445276Y-50222500D02*
X154954724Y-50222500D01*
%TO.C,R3*%
X175637258Y-46927500D02*
X175162742Y-46927500D01*
X175637258Y-47972500D02*
X175162742Y-47972500D01*
%TO.C,R2*%
X168622500Y-48854724D02*
X168622500Y-48345276D01*
X167577500Y-48854724D02*
X167577500Y-48345276D01*
%TO.C,R1*%
X175162742Y-49472500D02*
X175637258Y-49472500D01*
X175162742Y-48427500D02*
X175637258Y-48427500D01*
%TO.C,L1*%
X171290000Y-50861252D02*
X171290000Y-50338748D01*
X173510000Y-50861252D02*
X173510000Y-50338748D01*
%TO.C,DOut*%
X181100000Y-40850000D02*
X181100000Y-40800000D01*
X181100000Y-40800000D02*
X179250000Y-40800000D01*
X181100000Y-42700000D02*
X181100000Y-40850000D01*
X179250000Y-42700000D02*
X181100000Y-42700000D01*
X179250000Y-40800000D02*
X179250000Y-42700000D01*
%TO.C,DIn*%
X181100000Y-33850000D02*
X181100000Y-33800000D01*
X181100000Y-33800000D02*
X179250000Y-33800000D01*
X181100000Y-35700000D02*
X181100000Y-33850000D01*
X179250000Y-35700000D02*
X181100000Y-35700000D01*
X179250000Y-33800000D02*
X179250000Y-35700000D01*
%TO.C,DOut_3.3*%
X181100000Y-37350000D02*
X181100000Y-37300000D01*
X181100000Y-37300000D02*
X179250000Y-37300000D01*
X181100000Y-39200000D02*
X181100000Y-37350000D01*
X179250000Y-39200000D02*
X181100000Y-39200000D01*
X179250000Y-37300000D02*
X179250000Y-39200000D01*
%TO.C,Gnd*%
X181150000Y-48850000D02*
X181150000Y-48800000D01*
X181150000Y-48800000D02*
X179300000Y-48800000D01*
X181150000Y-50700000D02*
X181150000Y-48850000D01*
X179300000Y-50700000D02*
X181150000Y-50700000D01*
X179300000Y-48800000D02*
X179300000Y-50700000D01*
%TO.C,Pwr*%
X181150000Y-52350000D02*
X181150000Y-52300000D01*
X181150000Y-52300000D02*
X179300000Y-52300000D01*
X181150000Y-54200000D02*
X181150000Y-52350000D01*
X179300000Y-54200000D02*
X181150000Y-54200000D01*
X179300000Y-52300000D02*
X179300000Y-54200000D01*
%TO.C,J1*%
X153520000Y-50945000D02*
X154850000Y-50945000D01*
X156120000Y-50945000D02*
X166340000Y-50945000D01*
X156120000Y-53605000D02*
X166340000Y-53605000D01*
X156120000Y-53605000D02*
X156120000Y-50945000D01*
X166340000Y-53605000D02*
X166340000Y-50945000D01*
X153520000Y-52275000D02*
X153520000Y-50945000D01*
%TO.C,D2*%
X153900000Y-48935000D02*
X156360000Y-48935000D01*
X156360000Y-47465000D02*
X153900000Y-47465000D01*
X156360000Y-48935000D02*
X156360000Y-47465000D01*
%TO.C,D1*%
X169825000Y-48435000D02*
X172285000Y-48435000D01*
X172285000Y-46965000D02*
X169825000Y-46965000D01*
X172285000Y-48435000D02*
X172285000Y-46965000D01*
%TO.C,C6*%
X176283767Y-41560000D02*
X175991233Y-41560000D01*
X176283767Y-40540000D02*
X175991233Y-40540000D01*
%TO.C,C5*%
X174253733Y-38990000D02*
X174546267Y-38990000D01*
X174253733Y-40010000D02*
X174546267Y-40010000D01*
%TO.C,C4*%
X172061252Y-52965000D02*
X171538748Y-52965000D01*
X172061252Y-54435000D02*
X171538748Y-54435000D01*
%TO.C,C3*%
X168260000Y-42453733D02*
X168260000Y-42746267D01*
X167240000Y-42453733D02*
X167240000Y-42746267D01*
%TO.C,C2*%
X169165000Y-50138748D02*
X169165000Y-50661252D01*
X170635000Y-50138748D02*
X170635000Y-50661252D01*
%TO.C,C1*%
X176159420Y-51010000D02*
X176440580Y-51010000D01*
X176159420Y-49990000D02*
X176440580Y-49990000D01*
%TD*%
%LPC*%
D12*
%TO.C,U1*%
X171437500Y-43550000D03*
X171437500Y-41650000D03*
X169562500Y-42600000D03*
%TD*%
D13*
%TO.C,U3*%
X166862500Y-35950000D03*
X166862500Y-36450000D03*
X166862500Y-36950000D03*
X166862500Y-37450000D03*
X166862500Y-37950000D03*
X166862500Y-38450000D03*
X166862500Y-38950000D03*
X166862500Y-39450000D03*
D14*
X167550000Y-40137500D03*
X168050000Y-40137500D03*
X168550000Y-40137500D03*
X169050000Y-40137500D03*
X169550000Y-40137500D03*
X170050000Y-40137500D03*
X170550000Y-40137500D03*
X171050000Y-40137500D03*
D13*
X171737500Y-39450000D03*
X171737500Y-38950000D03*
X171737500Y-38450000D03*
X171737500Y-37950000D03*
X171737500Y-37450000D03*
X171737500Y-36950000D03*
X171737500Y-36450000D03*
X171737500Y-35950000D03*
D14*
X171050000Y-35262500D03*
X170550000Y-35262500D03*
X170050000Y-35262500D03*
X169550000Y-35262500D03*
X169050000Y-35262500D03*
X168550000Y-35262500D03*
X168050000Y-35262500D03*
X167550000Y-35262500D03*
D15*
X169300000Y-37700000D03*
%TD*%
D16*
%TO.C,U2*%
X177437500Y-52050000D03*
X177437500Y-53000000D03*
X177437500Y-53950000D03*
X175162500Y-53950000D03*
X175162500Y-53000000D03*
X175162500Y-52050000D03*
%TD*%
%TO.C,U4*%
X174062500Y-42950000D03*
X174062500Y-43900000D03*
X174062500Y-44850000D03*
X176337500Y-44850000D03*
X176337500Y-42950000D03*
%TD*%
D17*
%TO.C,SW1*%
X163105000Y-44110000D03*
X163105000Y-41570000D03*
X163105000Y-39030000D03*
X163105000Y-36490000D03*
X154495000Y-36490000D03*
X154495000Y-39030000D03*
X154495000Y-41570000D03*
X154495000Y-44110000D03*
%TD*%
D18*
%TO.C,R4*%
X153787500Y-49700000D03*
X155612500Y-49700000D03*
%TD*%
D19*
%TO.C,R3*%
X176225000Y-47450000D03*
X174575000Y-47450000D03*
%TD*%
D20*
%TO.C,R2*%
X168100000Y-47687500D03*
X168100000Y-49512500D03*
%TD*%
D21*
%TO.C,R1*%
X174575000Y-48950000D03*
X176225000Y-48950000D03*
%TD*%
D22*
%TO.C,L1*%
X172400000Y-51675000D03*
X172400000Y-49525000D03*
%TD*%
D23*
%TO.C,DOut*%
X180200000Y-41750000D03*
%TD*%
%TO.C,DIn*%
X180200000Y-34750000D03*
%TD*%
%TO.C,DOut_3.3*%
X180200000Y-38250000D03*
%TD*%
%TO.C,Gnd*%
X180250000Y-49750000D03*
%TD*%
%TO.C,Pwr*%
X180250000Y-53250000D03*
%TD*%
D24*
%TO.C,J1*%
X154850000Y-52275000D03*
D25*
X157390000Y-52275000D03*
X159930000Y-52275000D03*
X162470000Y-52275000D03*
X165010000Y-52275000D03*
%TD*%
D26*
%TO.C,D2*%
X155575000Y-48200000D03*
X153825000Y-48200000D03*
%TD*%
%TO.C,D1*%
X171500000Y-47700000D03*
X169750000Y-47700000D03*
%TD*%
D27*
%TO.C,C6*%
X177000000Y-41050000D03*
X175275000Y-41050000D03*
%TD*%
D28*
%TO.C,C5*%
X173537500Y-39500000D03*
X175262500Y-39500000D03*
%TD*%
D29*
%TO.C,C4*%
X172750000Y-53700000D03*
X170850000Y-53700000D03*
%TD*%
D30*
%TO.C,C3*%
X167750000Y-41737500D03*
X167750000Y-43462500D03*
%TD*%
D31*
%TO.C,C2*%
X169900000Y-49450000D03*
X169900000Y-51350000D03*
%TD*%
D32*
%TO.C,C1*%
X175525000Y-50500000D03*
X177075000Y-50500000D03*
%TD*%
M02*
