G04 #@! TF.GenerationSoftware,KiCad,Pcbnew,(6.0.2)*
G04 #@! TF.CreationDate,2022-12-18T22:11:01-08:00*
G04 #@! TF.ProjectId,rgb-led-board,7267622d-6c65-4642-9d62-6f6172642e6b,rev?*
G04 #@! TF.SameCoordinates,Original*
G04 #@! TF.FileFunction,Copper,L1,Top*
G04 #@! TF.FilePolarity,Positive*
%FSLAX46Y46*%
G04 Gerber Fmt 4.6, Leading zero omitted, Abs format (unit mm)*
G04 Created by KiCad (PCBNEW (6.0.2)) date 2022-12-18 22:11:01*
%MOMM*%
%LPD*%
G01*
G04 APERTURE LIST*
G04 Aperture macros list*
%AMRoundRect*
0 Rectangle with rounded corners*
0 $1 Rounding radius*
0 $2 $3 $4 $5 $6 $7 $8 $9 X,Y pos of 4 corners*
0 Add a 4 corners polygon primitive as box body*
4,1,4,$2,$3,$4,$5,$6,$7,$8,$9,$2,$3,0*
0 Add four circle primitives for the rounded corners*
1,1,$1+$1,$2,$3*
1,1,$1+$1,$4,$5*
1,1,$1+$1,$6,$7*
1,1,$1+$1,$8,$9*
0 Add four rect primitives between the rounded corners*
20,1,$1+$1,$2,$3,$4,$5,0*
20,1,$1+$1,$4,$5,$6,$7,0*
20,1,$1+$1,$6,$7,$8,$9,0*
20,1,$1+$1,$8,$9,$2,$3,0*%
G04 Aperture macros list end*
G04 #@! TA.AperFunction,SMDPad,CuDef*
%ADD10RoundRect,0.250000X-0.475000X0.250000X-0.475000X-0.250000X0.475000X-0.250000X0.475000X0.250000X0*%
G04 #@! TD*
G04 #@! TA.AperFunction,SMDPad,CuDef*
%ADD11RoundRect,0.150000X-0.512500X-0.150000X0.512500X-0.150000X0.512500X0.150000X-0.512500X0.150000X0*%
G04 #@! TD*
G04 #@! TA.AperFunction,SMDPad,CuDef*
%ADD12RoundRect,0.200000X-0.200000X-0.275000X0.200000X-0.275000X0.200000X0.275000X-0.200000X0.275000X0*%
G04 #@! TD*
G04 #@! TA.AperFunction,SMDPad,CuDef*
%ADD13RoundRect,0.200000X0.200000X0.275000X-0.200000X0.275000X-0.200000X-0.275000X0.200000X-0.275000X0*%
G04 #@! TD*
G04 #@! TA.AperFunction,SMDPad,CuDef*
%ADD14RoundRect,0.250000X-0.375000X-0.850000X0.375000X-0.850000X0.375000X0.850000X-0.375000X0.850000X0*%
G04 #@! TD*
G04 #@! TA.AperFunction,ComponentPad*
%ADD15C,3.000000*%
G04 #@! TD*
G04 #@! TA.AperFunction,SMDPad,CuDef*
%ADD16R,1.000000X1.500000*%
G04 #@! TD*
G04 #@! TA.AperFunction,SMDPad,CuDef*
%ADD17RoundRect,0.250000X0.475000X-0.250000X0.475000X0.250000X-0.475000X0.250000X-0.475000X-0.250000X0*%
G04 #@! TD*
G04 #@! TA.AperFunction,SMDPad,CuDef*
%ADD18RoundRect,0.225000X-0.225000X-0.250000X0.225000X-0.250000X0.225000X0.250000X-0.225000X0.250000X0*%
G04 #@! TD*
G04 #@! TA.AperFunction,ViaPad*
%ADD19C,0.800000*%
G04 #@! TD*
G04 #@! TA.AperFunction,Conductor*
%ADD20C,0.500000*%
G04 #@! TD*
G04 #@! TA.AperFunction,Conductor*
%ADD21C,1.000000*%
G04 #@! TD*
G04 #@! TA.AperFunction,Conductor*
%ADD22C,0.250000*%
G04 #@! TD*
G04 APERTURE END LIST*
D10*
X113000000Y-24500000D03*
X113000000Y-26400000D03*
D11*
X115937500Y-31050000D03*
X115937500Y-32000000D03*
X115937500Y-32950000D03*
X118212500Y-32950000D03*
X118212500Y-32000000D03*
X118212500Y-31050000D03*
D12*
X121825000Y-33000000D03*
X120175000Y-33000000D03*
D13*
X120175000Y-31000000D03*
X121825000Y-31000000D03*
D14*
X117000000Y-27000000D03*
X119150000Y-27000000D03*
D15*
X126500000Y-32000000D03*
X90000000Y-32000000D03*
X108500000Y-32000000D03*
X103500000Y-32000000D03*
D16*
X124900000Y-21450000D03*
X128100000Y-21450000D03*
X128100000Y-16550000D03*
X124900000Y-16550000D03*
X118900000Y-21450000D03*
X122100000Y-21450000D03*
X122100000Y-16550000D03*
X118900000Y-16550000D03*
X112900000Y-21450000D03*
X116100000Y-21450000D03*
X116100000Y-16550000D03*
X112900000Y-16550000D03*
X106900000Y-21450000D03*
X110100000Y-21450000D03*
X110100000Y-16550000D03*
X106900000Y-16550000D03*
X100900000Y-16550000D03*
X104100000Y-16550000D03*
X104100000Y-21450000D03*
X100900000Y-21450000D03*
X94900000Y-16550000D03*
X98100000Y-16550000D03*
X98100000Y-21450000D03*
X94900000Y-21450000D03*
X88900000Y-16550000D03*
X92100000Y-16550000D03*
X92100000Y-21450000D03*
X88900000Y-21450000D03*
D17*
X113575000Y-32950000D03*
X113575000Y-31050000D03*
D18*
X117300000Y-29500000D03*
X118850000Y-29500000D03*
D19*
X121500000Y-34000000D03*
X113000000Y-27450000D03*
X92000000Y-18000000D03*
X98000000Y-18000000D03*
X104000000Y-18000000D03*
X110000000Y-18000000D03*
X116000000Y-18000000D03*
X122000000Y-18000000D03*
X128000000Y-18000000D03*
X113500000Y-30000000D03*
X116000000Y-30000000D03*
D20*
X121825000Y-29825000D02*
X121825000Y-31000000D01*
X119150000Y-27150000D02*
X121825000Y-29825000D01*
X117049520Y-27049520D02*
X117000000Y-27000000D01*
X117049520Y-29525480D02*
X117049520Y-27049520D01*
D21*
X119000000Y-26850000D02*
X119150000Y-27000000D01*
D20*
X119150000Y-27000000D02*
X119150000Y-27150000D01*
D21*
X119000000Y-24500000D02*
X119000000Y-26850000D01*
D22*
X87500000Y-17950000D02*
X87500000Y-29500000D01*
X88900000Y-16550000D02*
X87500000Y-17950000D01*
X87500000Y-29500000D02*
X90000000Y-32000000D01*
X128100000Y-30400000D02*
X126500000Y-32000000D01*
X128100000Y-21450000D02*
X128100000Y-30400000D01*
D20*
X121825000Y-33000000D02*
X121825000Y-33675000D01*
X121825000Y-33675000D02*
X121500000Y-34000000D01*
X120175000Y-33000000D02*
X120175000Y-31000000D01*
X120125000Y-32950000D02*
X120175000Y-33000000D01*
X118212500Y-32950000D02*
X120125000Y-32950000D01*
X113000000Y-26400000D02*
X113000000Y-27450000D01*
X92100000Y-16550000D02*
X92100000Y-17900000D01*
X92100000Y-17900000D02*
X92000000Y-18000000D01*
X98100000Y-17900000D02*
X98000000Y-18000000D01*
X98100000Y-16550000D02*
X98100000Y-17900000D01*
X104100000Y-17900000D02*
X104000000Y-18000000D01*
X104100000Y-16550000D02*
X104100000Y-17900000D01*
X110100000Y-17900000D02*
X110000000Y-18000000D01*
X110100000Y-16550000D02*
X110100000Y-17900000D01*
X116100000Y-17900000D02*
X116000000Y-18000000D01*
X116100000Y-16550000D02*
X116100000Y-17900000D01*
X122100000Y-17900000D02*
X122000000Y-18000000D01*
X122100000Y-16550000D02*
X122100000Y-17900000D01*
X128100000Y-17900000D02*
X128000000Y-18000000D01*
X128100000Y-16550000D02*
X128100000Y-17900000D01*
X113575000Y-30075000D02*
X113500000Y-30000000D01*
X113575000Y-31050000D02*
X113575000Y-30075000D01*
X115937500Y-30062500D02*
X116000000Y-30000000D01*
X115937500Y-31050000D02*
X115937500Y-30062500D01*
X106000000Y-29500000D02*
X103500000Y-32000000D01*
X113575000Y-32950000D02*
X110125000Y-29500000D01*
X110125000Y-29500000D02*
X106000000Y-29500000D01*
D21*
X118900000Y-24400000D02*
X119000000Y-24500000D01*
X118900000Y-21450000D02*
X118900000Y-24400000D01*
X112900000Y-21450000D02*
X112900000Y-24400000D01*
X113000000Y-24500000D02*
X119000000Y-24500000D01*
X112900000Y-24400000D02*
X113000000Y-24500000D01*
X107000000Y-24500000D02*
X113000000Y-24500000D01*
X106900000Y-24400000D02*
X107000000Y-24500000D01*
X106900000Y-21450000D02*
X106900000Y-24400000D01*
X101000000Y-24500000D02*
X107000000Y-24500000D01*
X100900000Y-24400000D02*
X101000000Y-24500000D01*
X100900000Y-21450000D02*
X100900000Y-24400000D01*
X95000000Y-24500000D02*
X101000000Y-24500000D01*
X94900000Y-24400000D02*
X95000000Y-24500000D01*
X94900000Y-21450000D02*
X94900000Y-24400000D01*
X91950000Y-24500000D02*
X95000000Y-24500000D01*
X119000000Y-24500000D02*
X121850000Y-24500000D01*
X121850000Y-24500000D02*
X124900000Y-21450000D01*
X88900000Y-21450000D02*
X91950000Y-24500000D01*
D22*
X122100000Y-19350000D02*
X124900000Y-16550000D01*
X122100000Y-21450000D02*
X122100000Y-19350000D01*
X116100000Y-19350000D02*
X118900000Y-16550000D01*
X116100000Y-21450000D02*
X116100000Y-19350000D01*
X110100000Y-19350000D02*
X112900000Y-16550000D01*
X110100000Y-21450000D02*
X110100000Y-19350000D01*
X104100000Y-19350000D02*
X106900000Y-16550000D01*
X104100000Y-21450000D02*
X104100000Y-19350000D01*
X98100000Y-21450000D02*
X98100000Y-19350000D01*
X98100000Y-19350000D02*
X100900000Y-16550000D01*
X92100000Y-19350000D02*
X94900000Y-16550000D01*
X92100000Y-21450000D02*
X92100000Y-19350000D01*
D20*
X117075000Y-29500000D02*
X117049520Y-29525480D01*
X117049520Y-31525480D02*
X117049520Y-29525480D01*
X117300000Y-29500000D02*
X117075000Y-29500000D01*
X118212500Y-31050000D02*
X118212500Y-30137500D01*
X118212500Y-30137500D02*
X118850000Y-29500000D01*
X115937500Y-32950000D02*
X113575000Y-32950000D01*
X115937500Y-31050000D02*
X113575000Y-31050000D01*
X116575000Y-32000000D02*
X117049520Y-31525480D01*
X115937500Y-32000000D02*
X116575000Y-32000000D01*
M02*
