G04 #@! TF.GenerationSoftware,KiCad,Pcbnew,(6.0.2)*
G04 #@! TF.CreationDate,2022-12-18T22:11:01-08:00*
G04 #@! TF.ProjectId,rgb-led-board,7267622d-6c65-4642-9d62-6f6172642e6b,rev?*
G04 #@! TF.SameCoordinates,Original*
G04 #@! TF.FileFunction,Copper,L2,Bot*
G04 #@! TF.FilePolarity,Positive*
%FSLAX46Y46*%
G04 Gerber Fmt 4.6, Leading zero omitted, Abs format (unit mm)*
G04 Created by KiCad (PCBNEW (6.0.2)) date 2022-12-18 22:11:01*
%MOMM*%
%LPD*%
G01*
G04 APERTURE LIST*
G04 #@! TA.AperFunction,ComponentPad*
%ADD10C,3.000000*%
G04 #@! TD*
G04 #@! TA.AperFunction,ViaPad*
%ADD11C,0.800000*%
G04 #@! TD*
G04 APERTURE END LIST*
D10*
X126500000Y-32000000D03*
X90000000Y-32000000D03*
X108500000Y-32000000D03*
X103500000Y-32000000D03*
D11*
X121500000Y-34000000D03*
X113000000Y-27450000D03*
X92000000Y-18000000D03*
X98000000Y-18000000D03*
X104000000Y-18000000D03*
X110000000Y-18000000D03*
X116000000Y-18000000D03*
X122000000Y-18000000D03*
X128000000Y-18000000D03*
X113500000Y-30000000D03*
X116000000Y-30000000D03*
G04 #@! TA.AperFunction,Conductor*
G36*
X129934121Y-15528002D02*
G01*
X129980614Y-15581658D01*
X129992000Y-15634000D01*
X129992000Y-34366000D01*
X129971998Y-34434121D01*
X129918342Y-34480614D01*
X129866000Y-34492000D01*
X86634000Y-34492000D01*
X86565879Y-34471998D01*
X86519386Y-34418342D01*
X86508000Y-34366000D01*
X86508000Y-31978918D01*
X87986917Y-31978918D01*
X88002682Y-32252320D01*
X88003507Y-32256525D01*
X88003508Y-32256533D01*
X88024698Y-32364539D01*
X88055405Y-32521053D01*
X88056792Y-32525103D01*
X88056793Y-32525108D01*
X88077605Y-32585895D01*
X88144112Y-32780144D01*
X88267160Y-33024799D01*
X88269586Y-33028328D01*
X88269589Y-33028334D01*
X88398741Y-33216250D01*
X88422274Y-33250490D01*
X88606582Y-33453043D01*
X88816675Y-33628707D01*
X88820316Y-33630991D01*
X89045024Y-33771951D01*
X89045028Y-33771953D01*
X89048664Y-33774234D01*
X89116544Y-33804883D01*
X89294345Y-33885164D01*
X89294349Y-33885166D01*
X89298257Y-33886930D01*
X89302377Y-33888150D01*
X89302376Y-33888150D01*
X89556723Y-33963491D01*
X89556727Y-33963492D01*
X89560836Y-33964709D01*
X89565070Y-33965357D01*
X89565075Y-33965358D01*
X89827298Y-34005483D01*
X89827300Y-34005483D01*
X89831540Y-34006132D01*
X89970912Y-34008322D01*
X90101071Y-34010367D01*
X90101077Y-34010367D01*
X90105362Y-34010434D01*
X90377235Y-33977534D01*
X90642127Y-33908041D01*
X90646087Y-33906401D01*
X90646092Y-33906399D01*
X90768632Y-33855641D01*
X90895136Y-33803241D01*
X91131582Y-33665073D01*
X91347089Y-33496094D01*
X91388809Y-33453043D01*
X91534686Y-33302509D01*
X91537669Y-33299431D01*
X91540202Y-33295983D01*
X91540206Y-33295978D01*
X91697257Y-33082178D01*
X91699795Y-33078723D01*
X91701841Y-33074955D01*
X91828418Y-32841830D01*
X91828419Y-32841828D01*
X91830468Y-32838054D01*
X91927269Y-32581877D01*
X91988407Y-32314933D01*
X91994384Y-32247969D01*
X92012531Y-32044627D01*
X92012532Y-32044616D01*
X92012751Y-32042161D01*
X92013193Y-32000000D01*
X92011756Y-31978918D01*
X101486917Y-31978918D01*
X101502682Y-32252320D01*
X101503507Y-32256525D01*
X101503508Y-32256533D01*
X101524698Y-32364539D01*
X101555405Y-32521053D01*
X101556792Y-32525103D01*
X101556793Y-32525108D01*
X101577605Y-32585895D01*
X101644112Y-32780144D01*
X101767160Y-33024799D01*
X101769586Y-33028328D01*
X101769589Y-33028334D01*
X101898741Y-33216250D01*
X101922274Y-33250490D01*
X102106582Y-33453043D01*
X102316675Y-33628707D01*
X102320316Y-33630991D01*
X102545024Y-33771951D01*
X102545028Y-33771953D01*
X102548664Y-33774234D01*
X102616544Y-33804883D01*
X102794345Y-33885164D01*
X102794349Y-33885166D01*
X102798257Y-33886930D01*
X102802377Y-33888150D01*
X102802376Y-33888150D01*
X103056723Y-33963491D01*
X103056727Y-33963492D01*
X103060836Y-33964709D01*
X103065070Y-33965357D01*
X103065075Y-33965358D01*
X103327298Y-34005483D01*
X103327300Y-34005483D01*
X103331540Y-34006132D01*
X103470912Y-34008322D01*
X103601071Y-34010367D01*
X103601077Y-34010367D01*
X103605362Y-34010434D01*
X103877235Y-33977534D01*
X104142127Y-33908041D01*
X104146087Y-33906401D01*
X104146092Y-33906399D01*
X104268632Y-33855641D01*
X104395136Y-33803241D01*
X104631582Y-33665073D01*
X104727767Y-33589654D01*
X107275618Y-33589654D01*
X107282673Y-33599627D01*
X107313679Y-33625551D01*
X107320598Y-33630579D01*
X107545272Y-33771515D01*
X107552807Y-33775556D01*
X107794520Y-33884694D01*
X107802551Y-33887680D01*
X108056832Y-33963002D01*
X108065184Y-33964869D01*
X108327340Y-34004984D01*
X108335874Y-34005700D01*
X108601045Y-34009867D01*
X108609596Y-34009418D01*
X108872883Y-33977557D01*
X108881284Y-33975955D01*
X109137824Y-33908653D01*
X109145926Y-33905926D01*
X109390949Y-33804434D01*
X109398617Y-33800628D01*
X109627598Y-33666822D01*
X109634679Y-33662009D01*
X109714655Y-33599301D01*
X109723125Y-33587442D01*
X109716608Y-33575818D01*
X108512812Y-32372022D01*
X108498868Y-32364408D01*
X108497035Y-32364539D01*
X108490420Y-32368790D01*
X107282910Y-33576300D01*
X107275618Y-33589654D01*
X104727767Y-33589654D01*
X104847089Y-33496094D01*
X104888809Y-33453043D01*
X105034686Y-33302509D01*
X105037669Y-33299431D01*
X105040202Y-33295983D01*
X105040206Y-33295978D01*
X105197257Y-33082178D01*
X105199795Y-33078723D01*
X105201841Y-33074955D01*
X105328418Y-32841830D01*
X105328419Y-32841828D01*
X105330468Y-32838054D01*
X105427269Y-32581877D01*
X105488407Y-32314933D01*
X105494384Y-32247969D01*
X105512531Y-32044627D01*
X105512532Y-32044616D01*
X105512751Y-32042161D01*
X105513193Y-32000000D01*
X105512048Y-31983204D01*
X106487665Y-31983204D01*
X106502932Y-32247969D01*
X106504005Y-32256470D01*
X106555065Y-32516722D01*
X106557276Y-32524974D01*
X106643184Y-32775894D01*
X106646499Y-32783779D01*
X106765664Y-33020713D01*
X106770020Y-33028079D01*
X106899347Y-33216250D01*
X106909601Y-33224594D01*
X106923342Y-33217448D01*
X108127978Y-32012812D01*
X108134356Y-32001132D01*
X108864408Y-32001132D01*
X108864539Y-32002965D01*
X108868790Y-32009580D01*
X110075730Y-33216520D01*
X110087939Y-33223187D01*
X110099439Y-33214497D01*
X110196831Y-33081913D01*
X110201418Y-33074685D01*
X110327962Y-32841621D01*
X110331530Y-32833827D01*
X110425271Y-32585750D01*
X110427748Y-32577544D01*
X110486954Y-32319038D01*
X110488294Y-32310577D01*
X110512031Y-32044616D01*
X110512277Y-32039677D01*
X110512666Y-32002485D01*
X110512523Y-31997519D01*
X110511255Y-31978918D01*
X124486917Y-31978918D01*
X124502682Y-32252320D01*
X124503507Y-32256525D01*
X124503508Y-32256533D01*
X124524698Y-32364539D01*
X124555405Y-32521053D01*
X124556792Y-32525103D01*
X124556793Y-32525108D01*
X124577605Y-32585895D01*
X124644112Y-32780144D01*
X124767160Y-33024799D01*
X124769586Y-33028328D01*
X124769589Y-33028334D01*
X124898741Y-33216250D01*
X124922274Y-33250490D01*
X125106582Y-33453043D01*
X125316675Y-33628707D01*
X125320316Y-33630991D01*
X125545024Y-33771951D01*
X125545028Y-33771953D01*
X125548664Y-33774234D01*
X125616544Y-33804883D01*
X125794345Y-33885164D01*
X125794349Y-33885166D01*
X125798257Y-33886930D01*
X125802377Y-33888150D01*
X125802376Y-33888150D01*
X126056723Y-33963491D01*
X126056727Y-33963492D01*
X126060836Y-33964709D01*
X126065070Y-33965357D01*
X126065075Y-33965358D01*
X126327298Y-34005483D01*
X126327300Y-34005483D01*
X126331540Y-34006132D01*
X126470912Y-34008322D01*
X126601071Y-34010367D01*
X126601077Y-34010367D01*
X126605362Y-34010434D01*
X126877235Y-33977534D01*
X127142127Y-33908041D01*
X127146087Y-33906401D01*
X127146092Y-33906399D01*
X127268632Y-33855641D01*
X127395136Y-33803241D01*
X127631582Y-33665073D01*
X127847089Y-33496094D01*
X127888809Y-33453043D01*
X128034686Y-33302509D01*
X128037669Y-33299431D01*
X128040202Y-33295983D01*
X128040206Y-33295978D01*
X128197257Y-33082178D01*
X128199795Y-33078723D01*
X128201841Y-33074955D01*
X128328418Y-32841830D01*
X128328419Y-32841828D01*
X128330468Y-32838054D01*
X128427269Y-32581877D01*
X128488407Y-32314933D01*
X128494384Y-32247969D01*
X128512531Y-32044627D01*
X128512532Y-32044616D01*
X128512751Y-32042161D01*
X128513193Y-32000000D01*
X128511465Y-31974648D01*
X128494859Y-31731055D01*
X128494858Y-31731049D01*
X128494567Y-31726778D01*
X128439032Y-31458612D01*
X128347617Y-31200465D01*
X128222013Y-30957112D01*
X128212040Y-30942921D01*
X128067008Y-30736562D01*
X128064545Y-30733057D01*
X127878125Y-30532445D01*
X127874810Y-30529731D01*
X127874806Y-30529728D01*
X127669523Y-30361706D01*
X127666205Y-30358990D01*
X127432704Y-30215901D01*
X127428768Y-30214173D01*
X127185873Y-30107549D01*
X127185869Y-30107548D01*
X127181945Y-30105825D01*
X126918566Y-30030800D01*
X126914324Y-30030196D01*
X126914318Y-30030195D01*
X126713834Y-30001662D01*
X126647443Y-29992213D01*
X126503589Y-29991460D01*
X126377877Y-29990802D01*
X126377871Y-29990802D01*
X126373591Y-29990780D01*
X126369347Y-29991339D01*
X126369343Y-29991339D01*
X126250302Y-30007011D01*
X126102078Y-30026525D01*
X126097938Y-30027658D01*
X126097936Y-30027658D01*
X126025008Y-30047609D01*
X125837928Y-30098788D01*
X125833980Y-30100472D01*
X125589982Y-30204546D01*
X125589978Y-30204548D01*
X125586030Y-30206232D01*
X125566125Y-30218145D01*
X125354725Y-30344664D01*
X125354721Y-30344667D01*
X125351043Y-30346868D01*
X125137318Y-30518094D01*
X124948808Y-30716742D01*
X124789002Y-30939136D01*
X124660857Y-31181161D01*
X124659385Y-31185184D01*
X124659383Y-31185188D01*
X124652314Y-31204506D01*
X124566743Y-31438337D01*
X124508404Y-31705907D01*
X124486917Y-31978918D01*
X110511255Y-31978918D01*
X110494362Y-31731123D01*
X110493201Y-31722649D01*
X110439419Y-31462944D01*
X110437120Y-31454709D01*
X110348588Y-31204705D01*
X110345191Y-31196854D01*
X110223550Y-30961178D01*
X110219122Y-30953866D01*
X110100031Y-30784417D01*
X110089509Y-30776037D01*
X110076121Y-30783089D01*
X108872022Y-31987188D01*
X108864408Y-32001132D01*
X108134356Y-32001132D01*
X108135592Y-31998868D01*
X108135461Y-31997035D01*
X108131210Y-31990420D01*
X106923814Y-30783024D01*
X106911804Y-30776466D01*
X106900064Y-30785434D01*
X106791935Y-30935911D01*
X106787418Y-30943196D01*
X106663325Y-31177567D01*
X106659839Y-31185395D01*
X106568700Y-31434446D01*
X106566311Y-31442670D01*
X106509812Y-31701795D01*
X106508563Y-31710250D01*
X106487754Y-31974653D01*
X106487665Y-31983204D01*
X105512048Y-31983204D01*
X105511465Y-31974648D01*
X105494859Y-31731055D01*
X105494858Y-31731049D01*
X105494567Y-31726778D01*
X105439032Y-31458612D01*
X105347617Y-31200465D01*
X105222013Y-30957112D01*
X105212040Y-30942921D01*
X105067008Y-30736562D01*
X105064545Y-30733057D01*
X104878125Y-30532445D01*
X104874810Y-30529731D01*
X104874806Y-30529728D01*
X104731581Y-30412500D01*
X107276584Y-30412500D01*
X107282980Y-30423770D01*
X108487188Y-31627978D01*
X108501132Y-31635592D01*
X108502965Y-31635461D01*
X108509580Y-31631210D01*
X109716604Y-30424186D01*
X109723795Y-30411017D01*
X109716473Y-30400780D01*
X109669233Y-30362115D01*
X109662261Y-30357160D01*
X109436122Y-30218582D01*
X109428552Y-30214624D01*
X109185704Y-30108022D01*
X109177644Y-30105120D01*
X108922592Y-30032467D01*
X108914214Y-30030685D01*
X108651656Y-29993318D01*
X108643111Y-29992691D01*
X108377908Y-29991302D01*
X108369374Y-29991839D01*
X108106433Y-30026456D01*
X108098035Y-30028149D01*
X107842238Y-30098127D01*
X107834143Y-30100946D01*
X107590199Y-30204997D01*
X107582577Y-30208881D01*
X107355013Y-30345075D01*
X107347981Y-30349962D01*
X107285053Y-30400377D01*
X107276584Y-30412500D01*
X104731581Y-30412500D01*
X104669523Y-30361706D01*
X104666205Y-30358990D01*
X104432704Y-30215901D01*
X104428768Y-30214173D01*
X104185873Y-30107549D01*
X104185869Y-30107548D01*
X104181945Y-30105825D01*
X103918566Y-30030800D01*
X103914324Y-30030196D01*
X103914318Y-30030195D01*
X103713834Y-30001662D01*
X103647443Y-29992213D01*
X103503589Y-29991460D01*
X103377877Y-29990802D01*
X103377871Y-29990802D01*
X103373591Y-29990780D01*
X103369347Y-29991339D01*
X103369343Y-29991339D01*
X103250302Y-30007011D01*
X103102078Y-30026525D01*
X103097938Y-30027658D01*
X103097936Y-30027658D01*
X103025008Y-30047609D01*
X102837928Y-30098788D01*
X102833980Y-30100472D01*
X102589982Y-30204546D01*
X102589978Y-30204548D01*
X102586030Y-30206232D01*
X102566125Y-30218145D01*
X102354725Y-30344664D01*
X102354721Y-30344667D01*
X102351043Y-30346868D01*
X102137318Y-30518094D01*
X101948808Y-30716742D01*
X101789002Y-30939136D01*
X101660857Y-31181161D01*
X101659385Y-31185184D01*
X101659383Y-31185188D01*
X101652314Y-31204506D01*
X101566743Y-31438337D01*
X101508404Y-31705907D01*
X101486917Y-31978918D01*
X92011756Y-31978918D01*
X92011465Y-31974648D01*
X91994859Y-31731055D01*
X91994858Y-31731049D01*
X91994567Y-31726778D01*
X91939032Y-31458612D01*
X91847617Y-31200465D01*
X91722013Y-30957112D01*
X91712040Y-30942921D01*
X91567008Y-30736562D01*
X91564545Y-30733057D01*
X91378125Y-30532445D01*
X91374810Y-30529731D01*
X91374806Y-30529728D01*
X91169523Y-30361706D01*
X91166205Y-30358990D01*
X90932704Y-30215901D01*
X90928768Y-30214173D01*
X90685873Y-30107549D01*
X90685869Y-30107548D01*
X90681945Y-30105825D01*
X90418566Y-30030800D01*
X90414324Y-30030196D01*
X90414318Y-30030195D01*
X90213834Y-30001662D01*
X90147443Y-29992213D01*
X90003589Y-29991460D01*
X89877877Y-29990802D01*
X89877871Y-29990802D01*
X89873591Y-29990780D01*
X89869347Y-29991339D01*
X89869343Y-29991339D01*
X89750302Y-30007011D01*
X89602078Y-30026525D01*
X89597938Y-30027658D01*
X89597936Y-30027658D01*
X89525008Y-30047609D01*
X89337928Y-30098788D01*
X89333980Y-30100472D01*
X89089982Y-30204546D01*
X89089978Y-30204548D01*
X89086030Y-30206232D01*
X89066125Y-30218145D01*
X88854725Y-30344664D01*
X88854721Y-30344667D01*
X88851043Y-30346868D01*
X88637318Y-30518094D01*
X88448808Y-30716742D01*
X88289002Y-30939136D01*
X88160857Y-31181161D01*
X88159385Y-31185184D01*
X88159383Y-31185188D01*
X88152314Y-31204506D01*
X88066743Y-31438337D01*
X88008404Y-31705907D01*
X87986917Y-31978918D01*
X86508000Y-31978918D01*
X86508000Y-15634000D01*
X86528002Y-15565879D01*
X86581658Y-15519386D01*
X86634000Y-15508000D01*
X129866000Y-15508000D01*
X129934121Y-15528002D01*
G37*
G04 #@! TD.AperFunction*
M02*
